<?xml version="1.0" encoding="UTF-8"?>
<svg id="Layer_1" data-name="Layer 1" xmlns="http://www.w3.org/2000/svg" width="720" height="500" xmlns:xlink="http://www.w3.org/1999/xlink" version="1.1" viewBox="0 0 720 500">
  <defs>
    <style>
      .cls-1 {
        fill: #236eb4;
      }

      .cls-1, .cls-2, .cls-3, .cls-4, .cls-5, .cls-6, .cls-7, .cls-8, .cls-9, .cls-10, .cls-11, .cls-12, .cls-13, .cls-14, .cls-15, .cls-16, .cls-17, .cls-18, .cls-19, .cls-20, .cls-21, .cls-22, .cls-23, .cls-24, .cls-25, .cls-26, .cls-27, .cls-28, .cls-29, .cls-30, .cls-31, .cls-32, .cls-33, .cls-34, .cls-35, .cls-36, .cls-37, .cls-38, .cls-39, .cls-40, .cls-41, .cls-42, .cls-43, .cls-44, .cls-45, .cls-46, .cls-47, .cls-48, .cls-49, .cls-50, .cls-51, .cls-52, .cls-53, .cls-54, .cls-55, .cls-56, .cls-57, .cls-58 {
        stroke-width: 0px;
      }

      .cls-2 {
        fill: #f7b21b;
      }

      .cls-3 {
        fill: #009849;
      }

      .cls-4 {
        fill: #6d6d6d;
      }

      .cls-59, .cls-60, .cls-7, .cls-61, .cls-62, .cls-63, .cls-64, .cls-65, .cls-66, .cls-67, .cls-68, .cls-69, .cls-70, .cls-71 {
        fill: none;
      }

      .cls-59, .cls-72, .cls-73, .cls-64, .cls-68, .cls-69, .cls-70 {
        stroke: #0067ff;
      }

      .cls-59, .cls-62, .cls-63, .cls-64, .cls-71 {
        stroke-miterlimit: 10;
      }

      .cls-60 {
        stroke: #aaa;
      }

      .cls-60, .cls-61, .cls-72, .cls-73, .cls-65, .cls-74, .cls-66, .cls-67, .cls-75, .cls-68, .cls-69, .cls-70, .cls-76 {
        stroke-linecap: round;
        stroke-linejoin: round;
      }

      .cls-5 {
        fill: #e42528;
      }

      .cls-6 {
        fill: #049849;
      }

      .cls-77 {
        clip-path: url(#clippath);
      }

      .cls-61, .cls-72, .cls-63, .cls-73, .cls-64, .cls-65, .cls-74, .cls-66, .cls-67, .cls-75, .cls-69, .cls-76 {
        stroke-width: 2px;
      }

      .cls-61, .cls-74, .cls-75 {
        stroke: #22154d;
      }

      .cls-72, .cls-75, .cls-57, .cls-76 {
        fill: #fff;
      }

      .cls-8 {
        fill: url(#linear-gradient);
      }

      .cls-9 {
        fill: #f8b11c;
      }

      .cls-10 {
        fill: url(#radial-gradient);
      }

      .cls-11 {
        fill: url(#linear-gradient-11);
      }

      .cls-12 {
        fill: url(#linear-gradient-12);
      }

      .cls-13 {
        fill: url(#linear-gradient-13);
      }

      .cls-14 {
        fill: url(#linear-gradient-10);
      }

      .cls-15 {
        fill: url(#linear-gradient-17);
      }

      .cls-16 {
        fill: url(#linear-gradient-16);
      }

      .cls-17 {
        fill: url(#linear-gradient-19);
      }

      .cls-18 {
        fill: url(#linear-gradient-15);
      }

      .cls-19 {
        fill: url(#linear-gradient-18);
      }

      .cls-20 {
        fill: url(#linear-gradient-14);
      }

      .cls-21 {
        fill: url(#linear-gradient-20);
      }

      .cls-62 {
        stroke-width: 2.005px;
      }

      .cls-62, .cls-63 {
        stroke: #000;
      }

      .cls-73 {
        fill: #ffc700;
      }

      .cls-22 {
        fill: #216db3;
      }

      .cls-65, .cls-76 {
        stroke: #293a4b;
      }

      .cls-23 {
        fill: #059548;
      }

      .cls-24 {
        fill: #761116;
      }

      .cls-78 {
        clip-path: url(#clippath-1);
      }

      .cls-79 {
        clip-path: url(#clippath-3);
      }

      .cls-80 {
        clip-path: url(#clippath-2);
      }

      .cls-74 {
        fill: #0ba0ff;
      }

      .cls-25 {
        fill: #dc7e28;
      }

      .cls-26 {
        fill: #000;
      }

      .cls-27 {
        fill: url(#radial-gradient-2);
      }

      .cls-28 {
        fill: url(#radial-gradient-3);
      }

      .cls-29 {
        fill: url(#radial-gradient-4);
      }

      .cls-30 {
        fill: url(#radial-gradient-6);
      }

      .cls-31 {
        fill: url(#radial-gradient-5);
      }

      .cls-32 {
        fill: #fbefe0;
      }

      .cls-66, .cls-71 {
        stroke: #ff717f;
      }

      .cls-33 {
        fill: #e4e6e8;
      }

      .cls-34 {
        fill: #94cd9e;
      }

      .cls-35 {
        fill: #049949;
      }

      .cls-36 {
        fill: #e42527;
      }

      .cls-67 {
        stroke: #fff;
      }

      .cls-37 {
        fill: #fdd600;
      }

      .cls-38 {
        fill: #0067ff;
      }

      .cls-39 {
        fill: #e32628;
      }

      .cls-40 {
        fill: #f7b11a;
      }

      .cls-81 {
        opacity: .9;
      }

      .cls-41 {
        fill: #226db4;
      }

      .cls-42 {
        fill: #e32327;
      }

      .cls-43 {
        fill: #1f1f24;
      }

      .cls-44 {
        fill: url(#linear-gradient-4);
      }

      .cls-45 {
        fill: url(#linear-gradient-2);
      }

      .cls-46 {
        fill: url(#linear-gradient-3);
      }

      .cls-47 {
        fill: url(#linear-gradient-8);
      }

      .cls-48 {
        fill: url(#linear-gradient-9);
      }

      .cls-49 {
        fill: url(#linear-gradient-7);
      }

      .cls-50 {
        fill: url(#linear-gradient-5);
      }

      .cls-51 {
        fill: url(#linear-gradient-6);
      }

      .cls-52 {
        fill: #eb473e;
      }

      .cls-53 {
        fill: #0697d4;
      }

      .cls-54 {
        fill: #089949;
      }

      .cls-68 {
        stroke-width: 2.029px;
      }

      .cls-55 {
        fill: #8fc6e9;
      }

      .cls-56 {
        fill: #226eb3;
      }

      .cls-70 {
        stroke-width: 4px;
      }

      .cls-58 {
        fill: #69be6d;
      }
    </style>
    <linearGradient id="linear-gradient" x1="56.674" y1="5968.808" x2="66.467" y2="5979.596" gradientTransform="translate(0 -5870)" gradientUnits="userSpaceOnUse">
      <stop offset=".006" stop-color="#f7c419"/>
      <stop offset="1" stop-color="#e68d24"/>
    </linearGradient>
    <linearGradient id="linear-gradient-2" x1="45.759" y1="5970.122" x2="55.858" y2="5978.231" gradientTransform="translate(0 -5870)" gradientUnits="userSpaceOnUse">
      <stop offset=".006" stop-color="#1c89c9"/>
      <stop offset="1" stop-color="#00649d"/>
    </linearGradient>
    <linearGradient id="linear-gradient-3" x1="40.25" y1="5970.574" x2="40.25" y2="5979.424" gradientTransform="translate(0 -5870)" gradientUnits="userSpaceOnUse">
      <stop offset="0" stop-color="#249e49"/>
      <stop offset="1" stop-color="#008953"/>
    </linearGradient>
    <linearGradient id="linear-gradient-4" x1="27.406" y1="5969.708" x2="28.928" y2="5978.896" gradientTransform="translate(0 -5870)" gradientUnits="userSpaceOnUse">
      <stop offset="0" stop-color="#d71f31"/>
      <stop offset="1" stop-color="#ba2537"/>
    </linearGradient>
    <linearGradient id="linear-gradient-5" x1="215.318" y1="6631.076" x2="242.888" y2="6661.449" gradientTransform="translate(0 -6560)" gradientUnits="userSpaceOnUse">
      <stop offset=".006" stop-color="#f7c419"/>
      <stop offset="1" stop-color="#e68d24"/>
    </linearGradient>
    <linearGradient id="linear-gradient-6" x1="184.586" y1="6634.775" x2="213.019" y2="6657.607" gradientTransform="translate(0 -6560)" gradientUnits="userSpaceOnUse">
      <stop offset=".006" stop-color="#1c89c9"/>
      <stop offset="1" stop-color="#00649d"/>
    </linearGradient>
    <linearGradient id="linear-gradient-7" x1="169.05" y1="6636.041" x2="169.05" y2="6660.956" gradientTransform="translate(0 -6560)" gradientUnits="userSpaceOnUse">
      <stop offset="0" stop-color="#249e49"/>
      <stop offset="1" stop-color="#008953"/>
    </linearGradient>
    <linearGradient id="linear-gradient-8" x1="132.925" y1="6633.603" x2="137.209" y2="6659.47" gradientTransform="translate(0 -6560)" gradientUnits="userSpaceOnUse">
      <stop offset="0" stop-color="#d71f31"/>
      <stop offset="1" stop-color="#ba2537"/>
    </linearGradient>
    <radialGradient id="radial-gradient" cx="1172.863" cy="-4347.941" fx="1172.863" fy="-4347.941" r="31.847" gradientTransform="translate(-168.433 -1538.962) scale(.417 -.417)" gradientUnits="userSpaceOnUse">
      <stop offset=".18" stop-color="#6298fb"/>
      <stop offset=".96" stop-color="#4270ea"/>
    </radialGradient>
    <radialGradient id="radial-gradient-2" cx="1173.246" cy="-4347.843" fx="1173.246" fy="-4347.843" r="36.431" gradientTransform="translate(-168.433 -1538.962) scale(.417 -.417)" gradientUnits="userSpaceOnUse">
      <stop offset=".51" stop-color="#e69200"/>
      <stop offset="1" stop-color="#ffb600"/>
    </radialGradient>
    <radialGradient id="radial-gradient-3" cx="1173.269" cy="-4347.725" fx="1173.269" fy="-4347.725" r="38.653" gradientTransform="translate(-168.433 -1538.962) scale(.417 -.417)" gradientUnits="userSpaceOnUse">
      <stop offset=".51" stop-color="#e12935"/>
      <stop offset="1" stop-color="#eb7078"/>
    </radialGradient>
    <linearGradient id="linear-gradient-9" x1="319.765" y1="-2401.978" x2="328.749" y2="-2377.295" gradientTransform="translate(0 -2124) scale(1 -1)" gradientUnits="userSpaceOnUse">
      <stop offset="0" stop-color="#e5414b"/>
      <stop offset="1" stop-color="#ef888f"/>
    </linearGradient>
    <clipPath id="clippath">
      <path class="cls-7" d="M323.9,265.1c.7.4,1.4.8,1.9,1.3l2.1-2.1c.4-.4.4-1.1,0-1.6l-.1-.1c-.3-.2-.6-.4-.9-.6l-3,3.1Z"/>
    </clipPath>
    <linearGradient id="linear-gradient-10" x1="319.82" y1="-2401.997" x2="325.504" y2="-2386.382" gradientTransform="translate(0 -2124) scale(1 -1)" gradientUnits="userSpaceOnUse">
      <stop offset="0" stop-color="#c00e19"/>
      <stop offset="1" stop-color="#e12935"/>
    </linearGradient>
    <linearGradient id="linear-gradient-11" x1="395.167" y1="6828.931" x2="410.205" y2="6845.498" gradientTransform="translate(0 -6560)" gradientUnits="userSpaceOnUse">
      <stop offset=".006" stop-color="#f7c419"/>
      <stop offset="1" stop-color="#e68d24"/>
    </linearGradient>
    <linearGradient id="linear-gradient-12" x1="378.405" y1="6830.95" x2="393.913" y2="6843.404" gradientTransform="translate(0 -6560)" gradientUnits="userSpaceOnUse">
      <stop offset=".006" stop-color="#1c89c9"/>
      <stop offset="1" stop-color="#00649d"/>
    </linearGradient>
    <linearGradient id="linear-gradient-13" x1="369.95" y1="6831.633" x2="369.95" y2="6845.223" gradientTransform="translate(0 -6560)" gradientUnits="userSpaceOnUse">
      <stop offset="0" stop-color="#249e49"/>
      <stop offset="1" stop-color="#008953"/>
    </linearGradient>
    <linearGradient id="linear-gradient-14" x1="350.242" y1="6830.301" x2="352.578" y2="6844.411" gradientTransform="translate(0 -6560)" gradientUnits="userSpaceOnUse">
      <stop offset="0" stop-color="#d71f31"/>
      <stop offset="1" stop-color="#ba2537"/>
    </linearGradient>
    <linearGradient id="linear-gradient-15" x1="111.701" y1="1710.757" x2="139.261" y2="1741.119" gradientTransform="translate(0 -1382)" gradientUnits="userSpaceOnUse">
      <stop offset=".006" stop-color="#f7c419"/>
      <stop offset="1" stop-color="#e68d24"/>
    </linearGradient>
    <linearGradient id="linear-gradient-16" x1="81.006" y1="1714.441" x2="109.428" y2="1737.265" gradientTransform="translate(0 -1382)" gradientUnits="userSpaceOnUse">
      <stop offset=".006" stop-color="#1c89c9"/>
      <stop offset="1" stop-color="#00649d"/>
    </linearGradient>
    <linearGradient id="linear-gradient-17" x1="65.5" y1="1715.672" x2="65.5" y2="1740.578" gradientTransform="translate(0 -1382)" gradientUnits="userSpaceOnUse">
      <stop offset="0" stop-color="#249e49"/>
      <stop offset="1" stop-color="#008953"/>
    </linearGradient>
    <linearGradient id="linear-gradient-18" x1="29.386" y1="1713.235" x2="33.669" y2="1739.093" gradientTransform="translate(0 -1382)" gradientUnits="userSpaceOnUse">
      <stop offset="0" stop-color="#d71f31"/>
      <stop offset="1" stop-color="#ba2537"/>
    </linearGradient>
    <radialGradient id="radial-gradient-4" cx="3420.81" cy="9899.413" fx="3420.81" fy="9899.413" r="25.477" gradientTransform="translate(-860.221 -3806.047) scale(.417)" gradientUnits="userSpaceOnUse">
      <stop offset=".18" stop-color="#6298fb"/>
      <stop offset=".96" stop-color="#4270ea"/>
    </radialGradient>
    <radialGradient id="radial-gradient-5" cx="3421.117" cy="9899.334" fx="3421.117" fy="9899.334" r="29.145" gradientTransform="translate(-860.221 -3806.047) scale(.417)" gradientUnits="userSpaceOnUse">
      <stop offset=".51" stop-color="#e69200"/>
      <stop offset="1" stop-color="#ffb600"/>
    </radialGradient>
    <radialGradient id="radial-gradient-6" cx="3421.136" cy="9899.239" fx="3421.136" fy="9899.239" r="30.923" gradientTransform="translate(-860.221 -3806.047) scale(.417)" gradientUnits="userSpaceOnUse">
      <stop offset=".51" stop-color="#e12935"/>
      <stop offset="1" stop-color="#eb7078"/>
    </radialGradient>
    <linearGradient id="linear-gradient-19" x1="564.829" y1="3599.548" x2="572.016" y2="3579.801" gradientTransform="translate(0 -3276)" gradientUnits="userSpaceOnUse">
      <stop offset="0" stop-color="#e5414b"/>
      <stop offset="1" stop-color="#ef888f"/>
    </linearGradient>
    <clipPath id="clippath-1">
      <path class="cls-7" d="M568.1,313.2c.6.3,1.1.6,1.5,1l1.7-1.7c.3-.3.3-.9,0-1.2,0,0-.1,0-.1-.1-.2-.2-.5-.3-.7-.5l-2.4,2.5h0Z"/>
    </clipPath>
    <linearGradient id="linear-gradient-20" x1="564.842" y1="3599.552" x2="569.389" y2="3587.06" gradientTransform="translate(0 -3276)" gradientUnits="userSpaceOnUse">
      <stop offset="0" stop-color="#c00e19"/>
      <stop offset="1" stop-color="#e12935"/>
    </linearGradient>
    <clipPath id="clippath-2">
      <circle class="cls-7" cx="312.1" cy="19.1" r="9"/>
    </clipPath>
    <clipPath id="clippath-3">
      <circle class="cls-7" cx="589.947" cy="441.323" r="9"/>
    </clipPath>
  </defs>
  <path class="cls-43" d="M402.1,125.9h315v58h-315v-58h0Z"/>
  <g>
    <circle class="cls-76" cx="16" cy="16.4" r="10.5"/>
    <g>
      <line class="cls-65" x1="16" y1="11.4" x2="16" y2="21.4"/>
      <line class="cls-65" x1="21" y1="16.4" x2="11" y2="16.4"/>
    </g>
  </g>
  <circle class="cls-76" cx="47" cy="16.4" r="10.5"/>
  <line class="cls-65" x1="52" y1="16.4" x2="42" y2="16.4"/>
  <g>
    <circle class="cls-38" cx="110" cy="16.4" r="11"/>
    <g>
      <polyline class="cls-67" points="110.8 11.4 115.8 16.4 110.8 21.4"/>
      <line class="cls-67" x1="115" y1="16.4" x2="103" y2="16.4"/>
    </g>
  </g>
  <polyline class="cls-68" points="129.1 19 131.7 21.8 138.5 12.3"/>
  <g>
    <circle class="cls-72" cx="161.5" cy="16.9" r="13.5"/>
    <polyline class="cls-70" points="155.1 17 160.1 22.4 171.5 9.5"/>
  </g>
  <g>
    <circle class="cls-73" cx="77.5" cy="16.9" r="13.5"/>
    <polyline class="cls-70" points="71.1 17 76.2 22.4 87.4 9.6"/>
  </g>
  <g>
    <rect class="cls-57" x="1.8" y="46.7" width="108" height="66"/>
    <g>
      <g>
        <path class="cls-26" d="M20.3,81.5H7.6v-30.3h11.9c5.6,0,10.1,1.8,10.1,8,0,3.2-1.6,5.5-4.9,6.4,4.2.8,6.1,3.1,6.1,7.3,0,4.8-2.7,7.2-6.5,8-1.2.4-2.5.6-4,.6ZM13.4,63.9h5.5c3.3,0,5.1-1,5.1-4.5,0-3.3-2.3-4.1-5.2-4.1h-5.4v8.6ZM13.4,77.4h6.2c3.4,0,5.5-1.3,5.5-4.9,0-3.7-2.6-4.7-5.9-4.7h-5.9c.1,0,.1,9.6.1,9.6Z"/>
        <path class="cls-26" d="M37.8,55.8c-1.7,0-3.1-1.3-3.1-3s1.4-3,3.1-3,3.1,1.3,3.1,3c0,1.3-.8,2.4-1.9,2.8-.4.1-.8.2-1.2.2ZM40.5,59.3v22.2h-5.3v-22.2h5.3Z"/>
        <path class="cls-26" d="M55.6,89.6c-4.2,0-8.5-1.1-10.3-5.3l4.2-1.8c1.1,2.5,3.6,3.2,6.1,3.2,3.9,0,6.2-1.9,6.2-5.9v-3.3c-1.5,2.5-4.4,4.2-7.4,4.2-6.3,0-9.9-5-9.9-10.8s3.8-10.9,10-10.9c3,0,5.7,1.2,7.3,3.9v-3.4h5.3v20.5c0,5.2-2.9,8.2-7.1,9.2-1.3.2-2.8.4-4.4.4h0ZM55.8,76.5c4.2,0,6.2-3.1,6.2-6.9,0-3.7-2-6.7-6-6.7-4.2,0-6,3.2-6,7.1,0,2.6,1.2,5,3.4,6,.7.3,1.5.5,2.4.5Z"/>
        <path class="cls-26" d="M75.3,55.8c-1.7,0-3.1-1.3-3.1-3s1.4-3,3.1-3,3.1,1.3,3.1,3c0,1.3-.8,2.4-1.9,2.8-.3.1-.7.2-1.2.2ZM78,59.3v22.2h-5.3v-22.2h5.3Z"/>
        <path class="cls-26" d="M88.8,68.5v13h-5.3v-22.2h5.3v3.5c1.4-2.8,4.4-4,7.4-4,5.4,0,7.8,3.8,7.8,8.8v13.9h-5.4v-13.4c0-3.1-1.4-4.9-4.6-4.9-2.5,0-4.1,1.2-4.8,3.1-.2.6-.4,1.4-.4,2.2Z"/>
      </g>
      <g>
        <path class="cls-4" d="M11.1,107.5c-.8,0-1.5-.3-1.9-1v.9h-1.4v-8.2h1.3v3.5c.4-.6,1.2-1,1.9-1,1.7,0,2.5,1.4,2.5,2.9,0,.8-.2,1.5-.6,2-.2.3-.5.5-.8.6-.3.2-.6.3-1,.3ZM10.7,106.5c1.2,0,1.5-.9,1.5-1.9,0-.9-.5-1.8-1.5-1.8-1.2,0-1.6.9-1.6,1.9,0,.8.3,1.4.9,1.7.2,0,.4.1.7.1Z"/>
        <path class="cls-4" d="M19.6,101.8l-3.1,7.5h-1.3l1-2.5-2.2-5h1.4l1.5,3.6,1.4-3.6h1.3Z"/>
      </g>
      <g>
        <path class="cls-26" d="M78.2,108.3c-3.2,0-5-2.1-5-5.2,0-2.8,2-5.1,4.9-5.1,1.9,0,3.5.9,4.3,2.7l-1.6.7c-.4-1.1-1.4-1.9-2.6-1.9-2.1,0-3,1.8-3,3.7s.9,3.5,3,3.5c1.3,0,2.2-.8,2.7-2l1.5.7c-.5,1.4-1.6,2.3-2.9,2.7-.3.1-.8.2-1.3.2h0Z"/>
        <path class="cls-26" d="M85.9,104.1v4h-1.9v-9.9h3.6c2,0,3.7.7,3.7,3,0,1.4-.8,2.3-2.2,2.7l2.8,4.3h-2.1l-2.6-4-1.3-.1h0ZM85.9,102.8h1.6c1.1,0,1.9-.4,1.9-1.6s-.9-1.5-1.9-1.5h-1.6v3.1Z"/>
        <path class="cls-26" d="M94.9,100.5v7.6h-1.7v-9.9h2.4l2.9,7.2,2.8-7.2h2.4v9.9h-1.8v-7.6l-3.1,7.6h-.9s-3-7.6-3-7.6Z"/>
      </g>
      <g>
        <g>
          <polygon class="cls-25" points="68.1 97.4 68.1 108.2 66.6 109.7 66.6 99.1 68.1 97.4"/>
          <rect class="cls-8" x="56.8" y="99.1" width="9.9" height="10.6"/>
          <polygon class="cls-37" points="58.3 97.4 56.8 99.1 66.6 99.1 68.1 97.4 58.3 97.4"/>
        </g>
        <polygon class="cls-55" points="46.1 97.9 55.8 96.5 55 98.8 45.4 100.1 46.1 97.9"/>
        <polygon class="cls-45" points="55 98.8 56.3 108.3 46.8 109.7 45.4 100.1 55 98.8"/>
        <polyline class="cls-53" points="55 98.8 56.3 108.3 57.1 106.3 55.8 96.6 55.8 96.5"/>
        <polygon class="cls-46" points="37.9 97.1 46.5 100.9 42.6 109.7 34 105.9 37.9 97.1"/>
        <polygon class="cls-34" points="37 94 37.9 97.1 46.5 100.9 45.8 98.1 37 94"/>
        <polygon class="cls-58" points="37 94 33.5 102.2 34 105.9 37.9 97.1 37 94"/>
        <polygon class="cls-44" points="32.2 98.8 33.6 108.1 24.1 109.6 22.6 100.3 32.2 98.8"/>
        <polygon class="cls-24" points="32.8 95.4 34.3 104.8 33.6 108.1 32.2 98.8 32.8 95.4"/>
        <path class="cls-57" d="M65.1,102.9c-.2-.5-.5-.9-.9-1.3s-.8-.7-1.2-.8c-.5-.2-.9-.3-1.5-.3-.5,0-1,.1-1.5.3-.5.2-.9.5-1.2.8-.4.4-.7.8-.9,1.3s-.3,1-.3,1.6.1,1.1.3,1.6.5.9.9,1.3.8.6,1.2.8c.5.2,1,.3,1.5.3s1-.1,1.5-.3c.5-.2.9-.5,1.2-.8.4-.4.7-.8.9-1.3.2-.5.3-1,.3-1.6s-.1-1.1-.3-1.6ZM63.1,106.4c-.4.5-.9.7-1.5.7-.7,0-1.2-.2-1.6-.7-.4-.5-.6-1.1-.6-1.9s.2-1.5.6-1.9c.4-.5.9-.7,1.6-.7s1.2.2,1.5.7c.4.5.6,1.1.6,1.9s-.2,1.4-.6,1.9ZM28.9,104.2h0ZM31.2,106.7c-.1-.1-.2-.2-.3-.2s-.3-.1-.5-.1-.4,0-.6.1l-2.5.4c0-.2.1-.4.3-.8.2-.3.5-.8.8-1.2h0c.1-.2.2-.3.3-.4,0-.1.1-.1.2-.3.6-.8.9-1.4,1.1-1.8.1-.3.1-.5.1-.8v-.8c0-.2-.1-.3-.1-.4-.1-.1-.1-.2-.2-.3-.1-.1-.2-.1-.4-.1s-.3,0-.6.1l-2.9.5c-.4.1-.6.2-.8.3-.1.1-.2.3-.2.5v.1c0,.2.2.4.4.5.1.1.3.1.4.1h.4l2.4-.4v.1c0,.2,0,.3-.1.4-.1.2-.3.5-.5.9-.1.1-.2.3-.4.5-.7.8-1.1,1.5-1.4,2h0c-.2.4-.3.8-.4,1.1,0,.2-.1.4-.1.6v.4c0,.2.1.4.1.5.1.1.1.2.2.3.1.1.2.1.4.1s.6,0,1-.1l2.6-.4c.5-.1.8-.2,1-.3.1-.1.2-.3.2-.5v-.2c.2-.2.1-.4.1-.4h0ZM43.1,100.4c-.3-.4-.7-.6-1.2-.8-.5-.2-1-.3-1.4-.3h0c-.5,0-1,.1-1.5.3h0c-.5.2-.9.5-1.3.9-.4.4-.7.9-.9,1.4s-.4,1.1-.4,1.6v.2c0,.5.1,1,.2,1.4.2.5.4.9.8,1.3.3.4.8.6,1.3.8h0c.5.2,1,.3,1.4.3h0c.5,0,1-.1,1.5-.3h0c.5-.2.9-.5,1.3-.9s.7-.9.9-1.4.4-1.1.4-1.6v-.2c0-.5-.1-1-.3-1.4-.2-.6-.5-1-.8-1.3ZM42.2,104.2c-.3.8-.8,1.3-1.3,1.6-.3.2-.6.2-.9.2s-.5-.1-.8-.2c-.6-.3-1-.7-1.1-1.2-.1-.2-.1-.4-.1-.6,0-.4.1-.9.3-1.4.3-.8.8-1.3,1.3-1.6.3-.2.6-.2.9-.2s.5.1.8.2c.6.3,1,.7,1.1,1.3.1.2.1.4.1.6,0,.3-.1.8-.3,1.3ZM53.4,100.7c0-.3-.1-.5-.3-.7-.1-.1-.3-.2-.5-.2h-.1c-.2,0-.4.2-.6.3-.1.1-.1.3-.1.5v.2l.3,2.5-2.8.4-.3-2.5c0-.3-.1-.5-.3-.7-.1-.1-.3-.2-.5-.2h-.1c-.3,0-.5.2-.6.3-.1.1-.1.3-.1.5v.2l.9,6.4c0,.3.1.5.3.7.1.1.3.2.5.2h.2c.2,0,.4-.1.5-.3.1-.1.1-.3.1-.5v-.2l-.4-2.5,2.8-.4.4,2.5c0,.3.1.5.3.7.1.1.3.2.5.2h.1c.2,0,.4-.1.5-.3.1-.1.1-.3.1-.5v-.2s-.8-6.4-.8-6.4Z"/>
        <polygon class="cls-52" points="22.6 100.3 22.8 99.4 23.3 97 32.8 95.4 32.2 98.8 22.6 100.3"/>
      </g>
    </g>
  </g>
  <g>
    <rect class="cls-57" x="117.8" y="46.7" width="322" height="66"/>
    <g>
      <g>
        <path class="cls-26" d="M277.2,98.5c-9.2,0-14.1-5.9-14.1-14.8,0-8.2,5.6-14.6,14-14.6,5.4,0,10,2.6,12.2,7.7l-4.5,1.9c-1.2-3.1-4-5.3-7.5-5.3-6,0-8.5,5.2-8.5,10.5s2.6,10.1,8.6,10.1c3.8,0,6.5-2.2,7.8-5.7l4.4,1.9c-1.3,4-4.5,6.7-8.3,7.7-1.3.4-2.7.6-4.1.6Z"/>
        <path class="cls-26" d="M299,86.6v11.4h-5.5v-28.4h10.3c5.7,0,10.6,2.1,10.6,8.6,0,4.1-2.4,6.7-6.3,7.7l8,12.2h-5.9l-7.4-11.4c.1-.1-3.8-.1-3.8-.1h0ZM299,82.8h4.6c3.2,0,5.5-1.2,5.5-4.7s-2.5-4.3-5.5-4.3h-4.6v9Z"/>
        <path class="cls-26" d="M324.8,76.4v21.7h-5v-28.5h7l8.2,20.8,8.1-20.8h6.8v28.4h-5.1v-21.6l-8.9,21.7h-2.5s-8.6-21.7-8.6-21.7Z"/>
        <path class="cls-26" d="M369.9,87.3v10.8h-5.5v-28.5h9.9c6,0,10.6,2.4,10.6,9,0,7.2-5.6,8.8-11.8,8.8h-1.6c-.5-.1-1.1-.1-1.6-.1ZM369.9,83.4h4.3c3.4,0,5.3-1.4,5.3-4.9,0-3.4-2-4.7-5.3-4.7h-4.3v9.6h0Z"/>
        <path class="cls-26" d="M393.5,66.7v31.4h-5v-29.3s5-2.1,5-2.1Z"/>
        <path class="cls-26" d="M405.9,98.5c-4.9,0-7.5-3.2-7.5-7.8v-13.5h5v12.8c0,2.8,1.3,4.6,4.2,4.6,3,0,4.9-2,4.9-5v-12.4h5v20.8h-5v-3.2c-1,1.9-2.7,3-4.7,3.4-.6.2-1.2.3-1.9.3Z"/>
        <path class="cls-26" d="M429.9,98.5c-3.6,0-7.5-1.2-8.9-5l3.8-1.6c.8,2,2.9,3,5,3,1.8,0,3.8-.5,3.8-2.7,0-4.5-12.1-.9-12.1-9.1,0-4.2,4.1-6.3,8-6.3,3.3,0,7,1.2,8.4,4.5l-3.7,1.6c-.8-1.8-2.8-2.6-4.7-2.6-1.5,0-3.3.7-3.3,2.4,0,4.3,12.1.7,12.1,8.9,0,3.7-2.3,5.7-5.3,6.4-1,.3-2,.5-3.1.5h0Z"/>
      </g>
      <g>
        <g>
          <polygon class="cls-25" points="247.5 67.1 247.5 97.5 243.4 101.6 243.4 71.8 247.5 67.1"/>
          <rect class="cls-50" x="215.6" y="71.8" width="27.8" height="29.8"/>
          <polygon class="cls-37" points="219.9 67.1 215.6 71.8 243.4 71.8 247.5 67.1 219.9 67.1"/>
        </g>
        <polygon class="cls-55" points="185.5 68.4 212.9 64.6 210.6 71.1 183.6 74.8 185.5 68.4"/>
        <polygon class="cls-51" points="210.6 71.1 214.4 97.8 187.4 101.6 183.6 74.8 210.6 71.1"/>
        <polyline class="cls-53" points="210.6 71.1 214.4 97.8 216.4 92 212.9 64.7 212.9 64.6"/>
        <polygon class="cls-49" points="162.4 66.1 186.6 77 175.7 101.8 151.5 90.9 162.4 66.1"/>
        <polygon class="cls-34" points="159.9 57.6 162.4 66.1 186.6 77 184.6 68.9 159.9 57.6"/>
        <polygon class="cls-58" points="159.9 57.6 150.1 80.7 151.5 90.9 162.4 66.1 159.9 57.6"/>
        <polygon class="cls-47" points="146.4 71.1 150.4 97.3 123.7 101.5 119.3 75.2 146.4 71.1"/>
        <polygon class="cls-24" points="148.2 61.5 152.2 88 150.4 97.3 146.4 71.1 148.2 61.5"/>
        <path class="cls-57" d="M239.1,82.5c-.6-1.4-1.4-2.6-2.4-3.7-1.1-1.1-2.2-1.8-3.4-2.4-1.3-.6-2.6-.8-4.1-.8s-2.9.2-4.2.8-2.4,1.3-3.4,2.4c-1.1,1.1-1.9,2.3-2.4,3.7-.6,1.4-.8,2.9-.8,4.5s.2,3.1.8,4.5,1.4,2.7,2.4,3.8c1,1.1,2.1,1.8,3.4,2.3,1.3.6,2.7.8,4.2.8,1.4,0,2.9-.2,4.1-.8,1.3-.6,2.4-1.3,3.5-2.3,1.1-1.1,1.9-2.3,2.4-3.8s.9-2.9.9-4.5c-.2-1.6-.4-3.1-1-4.5ZM233.4,92.3c-1.1,1.3-2.5,1.9-4.4,1.9s-3.3-.7-4.4-1.9c-1.1-1.3-1.6-3.1-1.6-5.3,0-2.3.6-4.1,1.6-5.4s2.5-1.9,4.4-1.9,3.3.7,4.4,1.9c1.1,1.3,1.6,3.1,1.6,5.4s-.5,4.1-1.6,5.3ZM137.2,86.3h0ZM143.6,93.2c-.2-.2-.5-.4-.9-.6s-.8-.2-1.3-.2-1,.1-1.6.2l-7.1,1.2c.1-.6.4-1.2.8-2.2.6-1,1.3-2.2,2.4-3.5h0c.4-.5.6-.8.8-1.1.1-.2.3-.4.6-.8,1.6-2.1,2.6-3.8,3-5.2.2-.8.4-1.6.4-2.3v-.7c0-.6-.1-1.1-.1-1.7-.1-.5-.2-.9-.4-1.2-.1-.3-.4-.6-.6-.8-.3-.2-.7-.2-1.2-.2-.4,0-.9.1-1.6.2l-8.1,1.4c-1,.2-1.7.4-2.2.9-.3.3-.6.8-.6,1.3,0,.133.033.267.1.4.1.7.5,1.2,1.1,1.4.3.2.8.2,1.2.2s.7-.1,1.1-.1l6.9-1.2v.3c0,.4-.1.8-.2,1.2-.2.6-.7,1.3-1.5,2.4-.3.4-.6.8-1.1,1.4-1.9,2.2-3.1,4.2-3.9,5.7h0c-.6,1.1-.9,2.2-1.2,3.2-.1.6-.2,1.2-.2,1.8,0,.4.1.8.1,1.2.1.6.2,1,.4,1.3s.4.6.7.8c.2.2.6.2,1.2.2.7,0,1.6-.1,2.8-.3l7.4-1.2c1.3-.2,2.2-.6,2.8-.9.4-.3.6-.8.6-1.4,0-.2,0-.3-.1-.4-.2-.2-.3-.5-.5-.7h0ZM177.1,75.4c-.9-1-2.1-1.8-3.4-2.3-1.4-.6-2.7-.8-4.1-.8h-.1c-1.4,0-2.8.3-4.1.9h0c-1.4.6-2.6,1.5-3.7,2.6s-1.9,2.4-2.6,4c-.6,1.6-1,3.1-1.1,4.6v.5c0,1.3.2,2.7.7,4s1.2,2.6,2.2,3.6c.9,1,2.1,1.8,3.6,2.4h0c1.4.6,2.7.8,4.1.8h.1c1.4,0,2.8-.3,4.1-.9h0c1.4-.7,2.6-1.5,3.8-2.6,1.1-1.1,1.9-2.4,2.6-4,.6-1.6,1-3.1,1.1-4.6v-.4c0-1.4-.2-2.7-.8-4.1-.7-1.5-1.4-2.7-2.4-3.7h0ZM174.4,86.2c-.9,2.2-2.1,3.6-3.6,4.4-.8.4-1.6.7-2.4.7s-1.5-.2-2.3-.5c-1.7-.7-2.8-1.9-3.2-3.5-.1-.6-.2-1.2-.2-1.8,0-1.2.3-2.5.9-3.9.9-2.2,2.1-3.7,3.6-4.5.8-.4,1.6-.7,2.4-.7s1.5.2,2.3.5c1.7.7,2.8,1.9,3.2,3.5.1.6.2,1.1.2,1.7.1,1.3-.2,2.6-.9,4.1ZM206,76.2c-.1-.8-.4-1.4-.9-1.8-.4-.3-.8-.5-1.4-.5-.1,0-.2,0-.4.1-.7.1-1.2.4-1.6.9-.2.4-.4.8-.4,1.4,0,.2,0,.4.1.7l1,6.9-7.8,1.2-1-6.9c-.1-.8-.4-1.4-.9-1.8-.4-.3-.8-.5-1.4-.5-.1,0-.2,0-.4.1-.8.1-1.3.4-1.6.9-.2.4-.4.8-.4,1.4,0,.2,0,.4.1.7l2.6,18.1c.1.8.4,1.4.9,1.8.4.3.9.5,1.4.5.1,0,.3,0,.4-.1.6-.1,1.2-.4,1.5-.9.2-.4.4-.8.4-1.3,0-.2,0-.4-.1-.7l-1.1-7.2,7.8-1.2,1.1,7.2c.1.8.4,1.4.9,1.8.4.3.9.5,1.4.5.1,0,.2,0,.4-.1.7-.1,1.2-.4,1.6-.9.2-.4.4-.8.4-1.3,0-.2,0-.4-.1-.7l-2.5-18.3Z"/>
        <polygon class="cls-52" points="119.3 75.2 119.9 72.6 121.2 65.9 148.2 61.5 146.4 71.1 119.3 75.2"/>
      </g>
    </g>
  </g>
  <rect class="cls-57" x="14.4" y="304.4" width="237" height="66"/>
  <g>
    <polygon class="cls-64" points="3.9 218.2 3.9 128.2 55.9 128.2 55.9 180.3 3.9 218.2"/>
    <polygon class="cls-64" points="75.4 218.2 75.4 128.2 127.4 128.2 127.4 180.3 75.4 218.2"/>
  </g>
  <g>
    <g>
      <path class="cls-33" d="M447.3,150.5c-.4.9-.6,1.9-.7,3.1v1.2c0,.4.1.9.2,1.3.1.4.3.8.6,1.1.3.3.6.5,1,.6s.8.1,1.2.1h4.8v2.3h-4.8c-.8,0-1.5-.1-2.2-.2s-1.4-.5-2-1c-.7-.6-1.3-1.4-1.6-2.2-.3-.9-.5-1.8-.5-2.7v-1.2c.1-2.1.7-3.7,1.7-4.7s2.5-1.5,4.6-1.5h4.7v2.3h-4.3c-1.4.2-2.3.6-2.7,1.5h0Z"/>
      <path class="cls-33" d="M463.1,146.9l5.7,13.4h-3.1l-1.2-3.2h-5.8l-1.2,3.2h-3l5.7-13.4h2.9ZM459.6,154.7h4l-2-5.2-2,5.2Z"/>
      <path class="cls-33" d="M476.3,146.9h.8c.5,0,1,.1,1.5.2.5.1.9.4,1.3.8.3.3.6.7.8,1.1.2.4.3.9.3,1.3v.6c0,.9-.2,1.7-.6,2.4s-1.1,1.1-2.1,1.4l3.3,5.6h-3.2l-2.9-5.3h-3.3v5.3h-2.8v-13.4h6.9ZM475.7,149.3h-3.5v3.4h3.7c.6,0,1.1-.1,1.6-.3s.7-.7.7-1.4c0-.8-.3-1.3-.8-1.4-.5-.2-1.1-.3-1.7-.3h0Z"/>
      <path class="cls-33" d="M487.9,152.3h6.7v8h-6.1c-.8,0-1.5-.1-2.2-.2-.7-.1-1.4-.5-2-1-.7-.6-1.3-1.4-1.6-2.2-.3-.9-.5-1.8-.5-2.7v-1.2c.1-2.1.7-3.7,1.7-4.7s2.5-1.5,4.6-1.5h6.1v2.3h-6.1c-1.3,0-2.2.5-2.6,1.4s-.6,1.9-.6,3.1h0c0,1.1.2,2.1.6,2.9.4.8,1.3,1.2,2.6,1.2h3.2v-3.2h-3.8v-2.2h0Z"/>
      <path class="cls-33" d="M496,150.6c.3-1,.8-1.8,1.4-2.4.6-.6,1.5-1.1,2.5-1.3.4-.1.8-.2,1.2-.2s.8-.1,1.2-.1.9,0,1.3.1.9.1,1.3.2c1,.2,1.8.7,2.4,1.3s1.1,1.4,1.4,2.4c.1.4.2.9.3,1.4.1.5.1,1,.1,1.5s0,1.1-.1,1.6-.2,1-.3,1.5c-.3,1-.8,1.8-1.4,2.4-.6.6-1.5,1-2.5,1.3-.4.1-.8.2-1.2.2s-.9.1-1.3.1-.8,0-1.2-.1c-.4,0-.8-.1-1.1-.2-1-.2-1.8-.7-2.5-1.3-.6-.6-1.1-1.4-1.4-2.4-.1-.4-.2-.9-.3-1.4-.1-.5-.1-1-.1-1.5s0-1,.1-1.6c0-.6.1-1,.2-1.5h0ZM498.9,151.6c-.1.3-.1.7-.2,1,0,.3-.1.7-.1,1s0,.7.1,1c0,.3.1.7.2,1,.1.6.4,1.1.7,1.5s.8.7,1.3.9c.2.1.4.1.7.2.2,0,.5.1.7.1s.5,0,.7-.1.5-.1.7-.2c.6-.2,1-.5,1.3-.9s.5-.9.7-1.5c.1-.3.1-.7.2-1,0-.3.1-.7.1-1s0-.7-.1-1c0-.3-.1-.7-.2-1-.1-.6-.3-1.1-.7-1.5s-.8-.7-1.3-.9c-.2-.1-.4-.1-.7-.2-.2,0-.5-.1-.7-.1s-.5,0-.7.1c-.2,0-.5.1-.7.2-.6.2-1,.5-1.3.9s-.5.9-.7,1.5h0Z"/>
      <path class="cls-33" d="M521.8,149.3c-.6,0-1.1.1-1.5.4-.4.2-.6.7-.6,1.4,0,.5.2.9.5,1.1s.8.3,1.2.3h4.5c.4,0,.9.1,1.3.2s.8.3,1.1.6.5.6.7,1,.2.8.3,1.2v.8c0,1.6-.5,2.6-1.3,3.2-.8.6-2,.8-3.4.8h-7.5v-2.4h7.1c.6,0,1.2-.1,1.6-.3.5-.2.6-.7.6-1.4-.1-.6-.3-.9-.7-1.1-.4-.1-.8-.2-1.3-.2h-3.3c-1.4,0-2.5-.3-3.3-.8s-1.2-1.6-1.2-3.1c0-1.6.5-2.6,1.3-3.2.8-.6,2-.8,3.4-.8h7.4v2.4l-6.9-.1h0Z"/>
      <path class="cls-33" d="M534.3,150c-.5.5-.8,1.3-.9,2.3h7.8v2.3h-7.8c0,.5.1.9.2,1.4.1.4.3.8.6,1.2.3.3.6.5,1,.6s.8.1,1.2.1h4.8v2.3h-4.8c-.8,0-1.5-.1-2.2-.2-.7-.1-1.4-.5-2-1-.7-.6-1.3-1.4-1.6-2.2-.3-.9-.5-1.8-.5-2.7v-1.2c.1-2.1.7-3.7,1.7-4.7s2.5-1.5,4.6-1.5h4.7v2.3h-4.6c-.9.2-1.6.5-2.2,1h0Z"/>
      <path class="cls-33" d="M550.3,146.9h.8c.5,0,1,.1,1.5.2.5.1.9.4,1.3.8.3.3.6.7.8,1.1.2.4.3.9.3,1.3v.6c0,.9-.2,1.7-.6,2.4-.4.7-1.1,1.1-2.1,1.4l3.3,5.6h-3.2l-2.9-5.3h-3.3v5.3h-2.8v-13.4h6.9ZM549.7,149.3h-3.5v3.4h3.7c.6,0,1.1-.1,1.6-.3s.7-.7.7-1.4c0-.8-.3-1.3-.8-1.4-.5-.2-1.1-.3-1.7-.3h0Z"/>
      <path class="cls-33" d="M555.1,146.9h3.2l4,10,4.1-10h3l-5.6,13.4h-2.9l-5.8-13.4Z"/>
      <path class="cls-33" d="M569.7,160.3v-13.4h2.9v13.4h-2.9Z"/>
      <path class="cls-33" d="M578,150.5c-.4.9-.6,1.9-.7,3.1v1.2c0,.4.1.9.2,1.3.1.4.3.8.6,1.1s.6.5,1,.6.8.1,1.2.1h4.8v2.3h-4.8c-.8,0-1.5-.1-2.2-.2-.7-.1-1.4-.5-2-1-.7-.6-1.3-1.4-1.6-2.2-.3-.9-.5-1.8-.5-2.7v-1.2c.1-2.1.7-3.7,1.7-4.7s2.5-1.5,4.6-1.5h4.7v2.3h-4.6c-1.1.2-2,.6-2.4,1.5h0Z"/>
      <path class="cls-33" d="M590.2,150c-.5.5-.8,1.3-.9,2.3h7.8v2.3h-7.8c0,.5.1.9.2,1.4.1.4.3.8.6,1.2.3.3.6.5,1,.6s.8.1,1.2.1h4.8v2.3h-4.8c-.8,0-1.5-.1-2.2-.2-.7-.1-1.4-.5-2-1-.7-.6-1.3-1.4-1.6-2.2-.3-.9-.5-1.8-.5-2.7v-1.2c.1-2.1.7-3.7,1.7-4.7s2.5-1.5,4.6-1.5h4.7v2.3h-4.6c-1,.2-1.7.5-2.2,1h0Z"/>
      <path class="cls-33" d="M603.6,149.3c-.6,0-1.1.1-1.5.4-.4.2-.6.7-.6,1.4,0,.5.2.9.5,1.1s.8.3,1.2.3h4.5c.4,0,.9.1,1.3.2s.8.3,1.1.6.5.6.7,1,.2.8.3,1.2v.8c0,1.6-.5,2.6-1.3,3.2-.8.6-2,.8-3.4.8h-7.4v-2.4h7.1c.6,0,1.2-.1,1.6-.3.5-.2.6-.7.6-1.4-.1-.6-.3-.9-.7-1.1-.4-.1-.8-.2-1.3-.2h-3.3c-1.4,0-2.5-.3-3.3-.8s-1.2-1.6-1.2-3.1c0-1.6.5-2.6,1.3-3.2.8-.6,2-.8,3.4-.8h7.4v2.4l-7-.1h0Z"/>
      <path class="cls-33" d="M620.9,148.6c.8-1.1,2.6-1.7,5.4-1.7h4.3v2.3h-4.6c-1.2,0-2,.3-2.6.8s-.9,1.3-.9,2.5h8.1v2.3h-8.1v5.5h-2.8v-6.2c0-2.6.4-4.4,1.2-5.5h0Z"/>
      <path class="cls-33" d="M638.9,146.9l5.7,13.4h-3.1l-1.2-3.2h-5.8l-1.2,3.2h-3l5.7-13.4h2.9,0ZM635.3,154.7h4l-2-5.2-2,5.2Z"/>
      <path class="cls-33" d="M652.1,146.9h.8c.5,0,1,.1,1.5.2.5.1.9.4,1.3.8.3.3.6.7.8,1.1.2.4.3.9.3,1.3v.6c0,.9-.2,1.7-.6,2.4-.4.7-1.1,1.1-2.1,1.4l3.3,5.6h-3.2l-2.9-5.3h-3.3v5.3h-2.8v-13.4h6.9ZM651.4,149.3h-3.4v3.4h3.7c.6,0,1.1-.1,1.6-.3s.7-.7.7-1.4c0-.8-.3-1.3-.8-1.4-.6-.2-1.1-.3-1.8-.3h0Z"/>
      <path class="cls-33" d="M668.9,150c-.5.5-.8,1.3-.9,2.3h7.8v2.3h-7.8c0,.5.1.9.2,1.4.1.4.3.8.6,1.2.3.3.6.5,1,.6s.8.1,1.2.1h4.8v2.3h-4.8c-.8,0-1.5-.1-2.2-.2-.7-.1-1.4-.5-2-1-.7-.6-1.3-1.4-1.6-2.2-.3-.9-.5-1.8-.5-2.7v-1.2c.1-2.1.7-3.7,1.7-4.7s2.5-1.5,4.6-1.5h4.7v2.3h-4.6c-1,.2-1.7.5-2.2,1h0Z"/>
      <path class="cls-33" d="M684.7,146.9l5.7,13.4h-3.1l-1.2-3.2h-5.8l-1.2,3.2h-3l5.7-13.4h2.9,0ZM681.2,154.7h4l-2-5.2-2,5.2Z"/>
      <path class="cls-33" d="M695.4,149.3c-.6,0-1.1.1-1.5.4-.4.2-.6.7-.6,1.4,0,.5.2.9.5,1.1s.8.3,1.2.3h4.5c.4,0,.9.1,1.3.2s.8.3,1.1.6.5.6.7,1,.2.8.3,1.2v.8c0,1.6-.5,2.6-1.3,3.2-.8.6-2,.8-3.4.8h-7.5v-2.4h7.1c.6,0,1.2-.1,1.6-.3.5-.2.6-.7.6-1.4-.1-.6-.3-.9-.7-1.1-.4-.1-.8-.2-1.3-.2h-3.3c-1.4,0-2.5-.3-3.3-.8s-1.2-1.6-1.2-3.1c0-1.6.5-2.6,1.3-3.2.8-.6,2-.8,3.4-.8h7.4v2.4l-6.9-.1h0Z"/>
      <path class="cls-33" d="M703.3,149.2v-2.3h11.6v2.3h-4.3v11.1h-2.9v-11.1h-4.4,0Z"/>
    </g>
    <path class="cls-33" d="M440.1,163.2v4.5l-19.3-14.1,19.3-14.1v4.5h37.1v-10.3c0-3.9-3.2-7.1-7.1-7.1h-58.9c-3.9,0-7.1,3.2-7.1,7.1v42.4c0,3.9,3.2,7.1,7.1,7.1h58.9c3.9,0,7.1-3.2,7.1-7.1v-12.9h-37.1Z"/>
  </g>
  <path class="cls-43" d="M259.5,189.3h184v58h-184v-58Z"/>
  <g>
    <g>
      <polygon class="cls-33" points="377.8 204.5 378.8 201.6 373.6 201.6 372.7 204.5 373.5 204.5 371.1 212.2 370.2 212.2 369.3 215 374.4 215 375.4 212.2 374.6 212.2 377 204.5 377.8 204.5"/>
      <polygon class="cls-33" points="368.1 230.1 369 227.2 363.9 227.2 363 230.1 363.8 230.1 361.3 237.8 360.4 237.8 359.5 240.6 364.6 240.6 365.6 237.8 364.8 237.8 367.3 230.1 368.1 230.1"/>
      <polygon class="cls-33" points="415.4 204.5 416.4 201.6 411.2 201.6 410.3 204.5 411.1 204.5 408.7 212.2 407.7 212.2 406.9 215 412 215 412.9 212.2 412.2 212.2 414.6 204.5 415.4 204.5"/>
      <polygon class="cls-33" points="408.2 201.6 407.7 201.6 402 201.6 401.5 201.6 399.4 201.6 397.8 206.6 400.3 206.6 401 204.5 402.2 204.5 399.8 212.2 398.9 212.2 398 215 403.1 215 404.1 212.2 403.3 212.2 405.7 204.5 406.8 204.5 406.1 206.6 408.7 206.6 410.3 201.6 408.2 201.6"/>
      <polygon class="cls-33" points="335.2 207.6 330.6 207.6 329.6 210.9 327.2 210.9 330.7 200 331.9 200 333.1 196 325.8 196 324.5 200 325.6 200 322.1 210.9 320.9 210.9 319.7 215 332.9 215 334.1 210.9 334.1 210.9 335.2 207.6"/>
      <polygon class="cls-33" points="438.6 201.6 436.3 201.6 435.5 201.6 433 209.6 432 201.6 430.3 201.6 428.8 201.6 428 201.6 427.1 204.5 427.9 204.5 425.4 212.2 424.5 212.2 423.6 215 424.5 215 426.8 215 427.6 215 430 207.5 430.9 215 432.8 215 434.3 215 435.1 215 436 212.2 435.2 212.2 437.7 204.5 438.5 204.5 439.4 201.6 438.6 201.6"/>
      <polygon class="cls-33" points="381.1 227.2 378.8 227.2 378.1 227.2 375.6 235.2 374.6 227.2 372.8 227.2 371.4 227.2 370.6 227.2 369.7 230.1 370.5 230.1 368 237.8 367.1 237.8 366.2 240.6 367.1 240.6 369.4 240.6 370.2 240.6 372.6 233.1 373.5 240.6 375.4 240.6 376.9 240.6 377.7 240.6 378.6 237.8 377.8 237.8 380.2 230.1 381.1 230.1 382 227.2 381.1 227.2"/>
      <polygon class="cls-33" points="351 227.2 348.7 227.2 347.9 227.2 345.4 235.2 344.5 227.2 342.7 227.2 341.3 227.2 340.4 227.2 339.5 230.1 340.4 230.1 337.9 237.8 337 237.8 336.1 240.6 337 240.6 339.3 240.6 340.1 240.6 342.4 233.1 343.3 240.6 345.3 240.6 346.7 240.6 347.6 240.6 348.5 237.8 347.6 237.8 350.1 230.1 351 230.1 351.9 227.2 351 227.2"/>
      <polygon class="cls-33" points="391.1 231.7 392.6 227.2 390.5 227.2 389.6 227.2 383.6 227.2 382.6 230.1 383.5 230.1 381.1 237.7 380.2 237.7 379.3 240.5 388.5 240.5 390 236 386.9 236 386.4 237.7 384.6 237.7 385.5 235 388 235 388.8 232.5 386.2 232.5 387 230.1 388.7 230.1 388.2 231.7 391.1 231.7"/>
      <polygon class="cls-33" points="338.6 228.1 340.7 221.6 337.7 221.6 336.5 221.6 328 221.6 326.6 225.7 327.9 225.7 324.5 236.5 323.1 236.5 321.9 240.6 334.9 240.6 337 234.1 332.6 234.1 331.9 236.5 329.4 236.5 330.6 232.7 334.2 232.7 335.4 229.2 331.7 229.2 332.9 225.7 335.2 225.7 334.5 228.1 338.6 228.1"/>
      <polygon class="cls-33" points="401.8 231.7 403.3 227.2 401.2 227.2 400.4 227.2 394.3 227.2 393.4 230.1 394.3 230.1 391.9 237.7 391 237.7 390.1 240.5 399.2 240.5 400.7 236 397.6 236 397.1 237.7 395.4 237.7 396.2 235 398.8 235 399.6 232.5 397 232.5 397.8 230.1 399.5 230.1 398.9 231.7 401.8 231.7"/>
      <path class="cls-33" d="M347.8,201.6h-3.6l-3.3,10.5h-1.7l3.3-10.5h-4.4l-.9,2.9h.9l-2.7,8.3c-.4,1.1.4,2.3,1.6,2.3h4.1c1.4,0,2.6-.9,3-2.2l2.7-8.3h.8l.9-2.9h-.7v-.1h0Z"/>
      <path class="cls-33" d="M357.4,201.6h-7.2l-.9,2.9h.8l-2.5,7.7h-.8l-.9,2.9h7.4c1.5,0,2.8-1,3.2-2.4l.9-2.7c.3-.9-.4-1.9-1.3-1.9h-.1c1.1-.1,2-.9,2.3-1.9l.8-2.3c.2-1.2-.6-2.3-1.7-2.3h0ZM352.9,212.1h-1.7l.9-2.7h1.7l-.9,2.7ZM354.6,206.9h-1.7l.8-2.4h1.7l-.8,2.4Z"/>
      <path class="cls-33" d="M368.8,201.6h-7l-.9,2.9h.8l-2.5,7.7h-.8l-.9,2.9h4.5l1.7-5.4h1.7l-1.4,4.3c-.2.5.2,1.1.8,1.1h3.2l1-2.9h-.8l.7-2.2c.2-.7-.2-1.4-.8-1.6l-.3-.1.3-.1c.8-.2,1.5-.8,1.7-1.7l.2-.7.6-1.8c.3-1.2-.6-2.4-1.8-2.4h0ZM364.4,207.1l.9-2.6h1.7l-.9,2.6h-1.7Z"/>
      <path class="cls-33" d="M412.2,227.1h-7l-.9,2.9h.8l-2.5,7.7h-.8l-.9,2.9h4.5l1.7-5.4h1.7l-1.4,4.3c-.2.5.2,1.1.8,1.1h3.2l1-2.9h-.8l.7-2.2c.2-.7-.2-1.4-.8-1.6l-.3-.1.3-.1c.8-.2,1.5-.8,1.7-1.7l.2-.7.6-1.8c.2-1.2-.6-2.4-1.8-2.4h0ZM407.7,232.6l.9-2.6h1.7l-.9,2.6h-1.7Z"/>
      <path class="cls-33" d="M382.6,210l-.7,2.1h-1.7l2.4-7.6h1.9l-.5,1.5h3l1.4-4.4h-5.8c-1.6,0-2.9,1-3.4,2.6l-2.7,8.3c-.4,1.3.5,2.6,1.8,2.6h5.9l1.6-5-3.2-.1h0Z"/>
      <path class="cls-33" d="M397.7,201.6h-5.6l-5,10.5h-1l-.9,2.9h4l1.5-3.3h2l-.6,3.3h3.9l.9-2.9h-.9l1.7-10.5ZM393.2,209.4h-1.4l2.5-5.6-1.1,5.6Z"/>
      <path class="cls-33" d="M424.2,201.6h-4.2c-1.4,0-2.7.9-3.1,2.3l-2.8,8.7c-.4,1.2.5,2.4,1.6,2.4h4.2c1.4,0,2.7-.9,3.1-2.3l2.8-8.7c.5-1.2-.4-2.4-1.6-2.4ZM419.6,212.1h-1.8l2.5-7.7h1.8l-2.5,7.7Z"/>
      <path class="cls-33" d="M360.2,232.5h-4.3l-1,2.8h1l-.7,2.3h-1.7l2.4-7.6h1.9l-.3,1.1h3.2l1.3-4h-6c-1.6,0-2.9,1-3.4,2.6l-2.7,8.3c-.4,1.3.5,2.6,1.8,2.6h6.1l2.4-8.1h0Z"/>
      <path class="cls-33" d="M424.1,231.2l1.3-4h-6.2c-1.6,0-2.9,1.1-3.3,2.6l-.8,3c-.3,1.1.5,2.2,1.6,2.2h3.1l-.8,2.6h-2l.4-1.2h-3.4l-1.2,4h6.2c1.7,0,3.1-1.2,3.6-2.9l.9-3.2c.3-1-.5-2-1.4-2h-3.1l.7-2.4h1.8l-.4,1.2,3,.1h0Z"/>
      <g>
        <path class="cls-33" d="M429.6,225.6c-1.4,0-2.5,1.2-2.5,2.6s1.1,2.6,2.5,2.6,2.5-1.2,2.5-2.6-1.1-2.6-2.5-2.6ZM429.6,230.1c-1,0-1.8-.8-1.8-1.9s.8-1.9,1.8-1.9,1.8.8,1.8,1.9-.8,1.9-1.8,1.9Z"/>
        <path class="cls-33" d="M430.3,228.3h0c.4,0,.6-.3.6-.6s-.3-.6-.6-.6h-1.6v2.4h.7v-.9h.4s.3.5.3.9h.8c-.2-1.2-.6-1.2-.6-1.2h0ZM429.7,228.1h-.4v-.5h.4c.1,0,.3.1.3.3,0,.1-.1.2-.3.2Z"/>
      </g>
    </g>
    <g>
      <path class="cls-33" d="M283.3,224.4l1-5.2-4.7-.3v-15.7l-5.1,3v15.4c0,1.2.9,2.2,2.1,2.3l6.7.5Z"/>
      <path class="cls-33" d="M290.3,228v-3.6l5.5.1v-5h-5.5v-3.7h6.9l-1-5.3h-8.7c-1.2,0-2.2,1-2.2,2.2v17.8c0,1.3,1,2.4,2.3,2.5l7.9.4,1.4-5.3-6.6-.1h0Z"/>
      <path class="cls-33" d="M309,204.3c.1-.2.2-.5.4-.7.3-.6.6-1.1.9-1.7-.4-.9-1-1.5-2.1-1.6-.5,0-1-.2-1.5-.3-.2,0-.5,0-.7.1-.9.3-1.9.6-2.9,1,.7-.9,1.1-1.7,1.2-2.7.1-.6.3-1.2.4-1.8,0-.2,0-.4-.1-.5-.4-.3-.9-.6-1.3-.8-1-.3-1.9-.5-2.9-.8-.3-.1-.4,0-.6.2-.6.5-1.2,1.1-1.8,1.6-.1-.9-.2-1.7-.3-2.5,0-.2-.1-.5-.1-.7,0-.4-.1-.6-.5-.7-1.4-.4-2.7-.9-4.1-1.3-.8-.2-.8-.1-1.2.5-.1.2-.2.3-.3.5-.8,1-1.6,2.1-1.7,3.5-.2-.1-.4-.1-.6-.1.3-.6.5-1.1.8-1.6.5-.7.4-1.4.1-2.1-.1-.1-.2-.3-.4-.4-1.2-.4-2.5-.7-3.8-1-.5-.1-1.1,0-1.6,0-.1,0-.3.2-.3.4-.3,1-.6,2-.9,3.1-.2-.2-.3-.5-.5-.6-.1-.1-.3-.2-.4-.3-1.1-.2-2.2-.5-3.4-.7-.4-.1-.8-.3-1.1-.2-.5.1-.9.3-1.3.5-.1,0-.2.2-.2.3.1,1.4-.4,2.9.4,4.3-.4-.2-.7-.3-1-.4-1.4-.2-2.8-.4-4.2-.7-.7-.1-1,.2-1.5.5-.4.3-.5.6-.3,1,.2.3.2.7.3,1.1.1,1,.5,1.8,1.1,2.6,0,.1.1.1.1.2-.2.3-.5.5-.7.7-.2.3-.4.4-.8.3-1.3-.1-2.7-.2-4-.3-.5,0-1.4,1.1-1.3,1.5,0,0,0,.1.1.1.9,1.1,1.3,2.6,2.6,3.3-.4.8-.7,1.6-1,2.3h-1.6c-.8.1-1.5.1-2.3.2-.1,0-.3.1-.4.2-.2.5-.3,1-.4,1.5,0,.1.1.3.2.4,1,.8,2.1,1.5,3.2,2.3-.1.7-.2,1.6-.3,2.3-.6.2-1.2.4-1.8.6-.6.2-1.1.4-1.7.7-.1.1-.3.2-.3.3v1.5c0,.1.1.2.2.3,1.2.4,2.4.9,3.6,1.3,0,.3.1.7.1,1.1.1.4.1.9.2,1.1-.7.6-1.3,1.1-1.9,1.6-.2.2-.5.5-.7.7-.4.333-.533.767-.4,1.3.1.3.2.5.4.7.1.1.2.2.3.2h3.5c.3.7.7,1.6,1,2.3-.5.7-.9,1.3-1.3,2-.2.3-.3.6-.5.9-.4.7-.4.9.1,1.5.2.2.3.3.5.5.1.1.3.1.4.1,1.1-.3,2.2-.7,3.3-1.1.5.6,1.1,1.3,1.6,1.8-.3.9-.5,1.7-.8,2.5-.1.4-.1.8-.3,1.1-.2.4-.1.6.2.9.2.1.3.3.5.4.3.2.7.3,1.1.1,1-.4,2-.8,2.9-1.2.6-.3,1-.1,1.4.2-.1.4-.1.8-.1,1.1v3c0,.1,0,.2.1.2.4.5,1.5.8,2.1.5,1.2-.6,2.4-1.2,3.7-1.8.1.5.2,1,.3,1.4.2.7.5,1.5.8,2.2,0,.1.2.2.3.3.3.1.7.2,1,.1.3,0,.7-.2.9-.3,1.1-.6,2.2-1.3,3.4-2,.5.8,1,1.5,1.5,2.2.1.1.3.2.4.2.5-.1,1-.1,1.5-.4.9-.5,1.7-1.2,2.6-1.7.4-.2.4-.5.2-.8-.4-.7-.8-1.5-1.2-2.3.3-.1.5-.2.7-.3.4,1,1.2,1.7,2,2.4.2.2.4.4.6.6.6.6.8.7,1.6.2.3-.2.5-.4.7-.6.1-.1.2-.2.3-.2.9-.6,1.7-1.2,2.6-1.8.2-.2.3-.4.2-.6-.1-.5-.1-1.1-.2-1.8.7.4,1.2.7,1.8,1,.1.1.4.1.5,0,.3-.2.6-.5,1-.8.7-.5,1.4-.9,2.1-1.4.2-.2.4-.4.6-.7.1-.1.1-.3.2-.5-.4-1-.9-2-1.4-3.2.8.1,2,.2,2.7.3h0c.9-.5,2.3-1.5,2.9-2.1.4-.6.5-1,.5-1-1.2-1.1-1.8-2.6-3.3-3.2l-.1-.9c.6,0,1.2-.2,1.9-.3.3-.1.6-.1.9-.1h.4l2.4-1.3.2-1.4c0-.2-.1-.4-.3-.6-.5-.3-1-.7-1.5-.9-.7-.3-1.4-.6-2.1-.9-.1,0-.2-.1-.3-.1v-1.8l.1-.3c1.2-.9,2.7-1.3,4.1-1.6.3-.1.4-.2.4-.5v-1c-.1-.3,0-.7-.5-.7-1.5-.2-2.9-1.1-4.4-.6-.2-.7-.3-1.4-.5-2.1v-.1c1.3-.6,1.9-1.1,2.3-1.5.9-1.3,1.6-1.5,1.7-1.6h0c-.2-.5-.4-.9-.5-1.3-.2-.4-.5-.6-.9-.5-1,.1-2,0-3,.1-1.1.1-1.9,0-2.2-1.2l1.3-2.4h0ZM305.9,220.6c0-.1,0-.3-.1-.4h-.1v1.6c0,.1-.1.3-.1.4-.2.8-.3,1.6-.5,2.4-.2.8-.5,1.6-.8,2.4-1.1,2.6-2.7,4.9-4.7,6.9-8.2,7.8-20.9,6.8-27.8-2.2-2.7-3.5-4.2-7.6-4.4-12-.3-6.3,1.7-11.8,6.2-16.3,7.8-7.7,20.2-7.1,27.3,1.2.9,1.1,1.7,2.3,2.4,3.6.5.9,1,1.9,1.4,2.8.4,1,.6,2.1.8,3.1.1.3.1.7.2,1,0,.2.1.4.1.6.1.4.1.8.2,1.2v-.4h0c-.1,1.4-.1,2.7-.1,4.1h0Z"/>
      <path class="cls-33" d="M283.6,228c0,.5-.2.9-.5,1.2s-.7.5-1.2.5-.9-.2-1.2-.5c-.3-.3-.5-.8-.5-1.2,0-.3.1-.5.2-.7s.3-.4.5-.6c.3-.3.7-.4,1.1-.4.3,0,.5.1.7.2.3.1.6.3.7.6.1.2.2.5.2.9h0ZM281.9,226.5c-.4,0-.7.1-1,.4-.3.3-.4.6-.4,1s.1.8.4,1.1.6.4,1,.4.7-.1,1-.4c.3-.3.4-.6.4-1.1,0-.2-.1-.4-.2-.7-.1-.2-.3-.4-.4-.5-.2-.1-.5-.2-.8-.2ZM282.1,228.1l.7.8h-.5l-.6-.8v.8h-.4v-2h.4c.3,0,.5.1.6.1.1.1.2.3.2.5,0,.1,0,.2-.1.4-.1.1-.2.2-.3.2h0ZM281.6,227.9h0c.3,0,.5-.1.5-.3s-.1-.3-.4-.3h-.1v.6Z"/>
    </g>
  </g>
  <path class="cls-43" d="M149.2,125.9h248v58h-248v-58h0Z"/>
  <path class="cls-43" d="M149,189.3h104v58h-104v-58Z"/>
  <g>
    <polygon class="cls-33" points="231.5 170.8 231.5 156.4 226 170.8 223.6 170.8 218 156.4 218 170.8 212.4 170.8 212.4 149 220.2 149 224.8 161 229.3 149 237.2 149 237.2 170.8 231.5 170.8"/>
    <path class="cls-33" d="M255.9,170.8l-1.1-3.1h-8.6l-1.1,3.1h-6.4l8.3-21.8h7.1l8.2,21.8h-6.4ZM250.6,154.6l-2.8,8.2h5.5l-2.7-8.2Z"/>
    <path class="cls-33" d="M276.1,170.8l-3.7-7.3h-2.9v7.3h-5.6v-21.8h10.9c4.8,0,7.6,3.2,7.6,7.3,0,3.8-2.3,5.8-4.4,6.5l4.5,8h-6.4ZM276.7,156.2c0-1.5-1.2-2.3-2.7-2.3h-4.5v4.7h4.5c1.5,0,2.7-.8,2.7-2.4"/>
    <path class="cls-33" d="M300.4,170.8l-1.1-3.1h-8.6l-1.1,3.1h-6.4l8.2-21.8h7.1l8.2,21.8h-6.3ZM295,154.6l-2.8,8.2h5.5l-2.7-8.2Z"/>
    <polygon class="cls-33" points="311.2 170.8 311.2 153.9 305.1 153.9 305.1 149 322.9 149 322.9 153.9 316.8 153.9 316.8 170.8 311.2 170.8"/>
    <polygon class="cls-33" points="340.3 170.8 340.3 162.1 331.2 162.1 331.2 170.8 325.6 170.8 325.6 149 331.2 149 331.2 157.1 340.3 157.1 340.3 149 345.9 149 345.9 170.8 340.3 170.8"/>
    <path class="cls-33" d="M348.7,159.9c0-6.6,5-11.3,11.7-11.3s11.6,4.6,11.6,11.3c0,6.6-5,11.3-11.6,11.3-6.7,0-11.7-4.6-11.7-11.3M366.3,159.9c0-3.6-2.3-6.3-5.9-6.3s-6,2.8-6,6.3,2.4,6.3,6,6.3,5.9-2.7,5.9-6.3"/>
    <polygon class="cls-33" points="389.8 170.8 380.6 158.2 380.6 170.8 374.9 170.8 374.9 149 380.7 149 389.6 161 389.6 149 395.2 149 395.2 170.8 389.8 170.8"/>
    <polygon class="cls-33" points="186.1 138.6 173.8 145.6 161.5 138.6 151 145 151 148.7 161.5 143.3 173.8 149.3 186.1 143.3 196.7 148.7 196.7 145 186.1 138.6"/>
    <polygon class="cls-33" points="186.1 147.9 173.8 153 161.6 147.9 151 152.5 151 156.3 161.6 152.5 173.8 156.7 186 152.5 196.7 156.3 196.7 152.5 186.1 147.9"/>
    <polygon class="cls-33" points="186 157.1 173.8 160.3 161.7 157.1 151 160 151 163.8 161.7 161.8 173.8 164 185.9 161.8 196.7 163.8 196.7 160 186 157.1"/>
    <polygon class="cls-33" points="196.7 167.3 186.1 166.1 173.8 167.4 161.5 166.1 151 167.3 151 167.7 151 170.8 161.5 170.8 173.8 170.8 173.8 170.8 173.8 170.8 186.1 170.8 196.7 170.8 196.7 167.7 196.7 167.3"/>
  </g>
  <g>
    <path class="cls-33" d="M199.9,202.5s-3-.5-9.6.8v-11h-7.9v41.8h7.9v-24.6c2.1-.9,5.6-.9,5.6-.9,1.9,0,1.9,1.8,1.9,1.8v23.7h7.9v-25.9c0-3.2-2.7-5-5.8-5.7h0Z"/>
    <rect class="cls-33" x="229.3" y="202.5" width="7.9" height="31.6"/>
    <rect class="cls-33" x="208.4" y="202.5" width="7.9" height="31.6"/>
    <path class="cls-33" d="M218.9,202.5v34.2c0,1.8-1.5,3.3-3.3,3.3h-.9v4.7h5.1c3.8,0,6.9-3.1,6.9-6.9v-35.3h-7.8Z"/>
    <circle class="cls-33" cx="222.9" cy="196.1" r="4.1"/>
    <circle class="cls-33" cx="212.3" cy="196.1" r="3.4"/>
    <g>
      <circle class="cls-33" cx="203.3" cy="196.1" r="2.7"/>
      <circle class="cls-33" cx="196.7" cy="196.1" r="1.4"/>
    </g>
    <circle class="cls-33" cx="242.3" cy="196.1" r="2.7"/>
    <circle class="cls-33" cx="248.9" cy="196.1" r="1.4"/>
    <circle class="cls-33" cx="233.3" cy="196.1" r="3.4"/>
    <path class="cls-33" d="M178.3,199.3l-13.8-.9s-4.5-.3-4.5,2.9c0,.7-.3,3.4,3.5,5.3,1,.6,16.1,6.9,16.6,14.2.1.7,2,8.1-5,11.7-.8.5-3.3,1.8-8.5,1.6l-13-.7v-6.4l12,.7s6,1.5,5.3-4.3c-.1-.7-.3-3-4.3-5.2-4.7-2.9-16.8-5.5-15.7-17.1,0,0,.2-8.7,13.1-8.9l14.4.5s-.2,6.5-.1,6.6h0Z"/>
  </g>
  <g>
    <rect class="cls-74" x="466.7" y="22.6" width="44" height="44"/>
    <path class="cls-62" d="M506.2,86.6h0c-13.5,0-24.5-11-24.5-24.5h0c0-13.5,11-24.5,24.5-24.5h0c13.5,0,24.5,11,24.5,24.5h0c0,13.5-10.9,24.5-24.5,24.5Z"/>
    <line class="cls-63" x1="477.7" y1="23.6" x2="477.7" y2="66.6"/>
    <line class="cls-63" x1="510.7" y1="66.6" x2="466.7" y2="66.6"/>
    <line class="cls-63" x1="488.7" y1="23.6" x2="488.7" y2="66.6"/>
    <line class="cls-63" x1="499.7" y1="23.6" x2="499.7" y2="66.6"/>
  </g>
  <g>
    <circle class="cls-75" cx="567.6" cy="54.5" r="28.5"/>
    <polygon class="cls-74" points="578.1 22.6 546.4 57.4 564.8 62.2 554.1 86.6 588.5 51.5 570.1 46.8 578.1 22.6"/>
  </g>
  <g>
    <path class="cls-75" d="M618.7,85.6h-6.3c-2.9,0-5.3-2.4-5.3-5.3v-27.4c0-2.9,2.4-5.3,5.3-5.3h6.3c2.9,0,5.3,2.4,5.3,5.3v27.3c0,3-2.4,5.4-5.3,5.4Z"/>
    <path class="cls-74" d="M669.8,43.6h-25.1c-2.1,0-3.7-1.7-3.7-3.7v-12c0-2.9-2.4-5.3-5.3-5.3h-2.1c-2.5,0-4.6,2.1-4.6,4.6v52.2c0,4,3.2,7.2,7.2,7.2h33.6c4,0,7.2-3.2,7.2-7.2v-28.6c0-4-3.2-7.2-7.2-7.2h0Z"/>
    <g>
      <line class="cls-61" x1="676" y1="55.6" x2="664" y2="55.6"/>
      <line class="cls-61" x1="676" y1="65.6" x2="664" y2="65.6"/>
      <line class="cls-61" x1="676" y1="75.6" x2="664" y2="75.6"/>
    </g>
  </g>
  <g>
    <path class="cls-60" d="M194,11.1h0c4.4,0,8,3.6,8,8h0c0,4.4-3.6,8-8,8h0c-4.4,0-8-3.6-8-8h0c0-4.4,3.6-8,8-8Z"/>
    <path class="cls-60" d="M195.5,23.2h-3M194.5,23.2v-4.1c0-.5-.4-.9-.9-.9h-1.1M193.5,15.2h0"/>
  </g>
  <path class="cls-43" d="M447.7,189.3h202.6v58h-202.6v-58h0Z"/>
  <path class="cls-33" d="M470.9,229.4c-2.6,4.5-8.4,4.4-11.6.1l-7-10.5c1.9-2.3,6.8-4.1,8.7-1.5,3.3,4.5,3.6,4.6,4.3,3.8,2-3.3,9.3-16.7,9.4-16.9h-21.7c-2.3,0-4.8,2.4-4.7,5.2v21.6c0,2.3,2.2,5.2,4.8,5.2h23.5c2.6,0,4.8-2.3,4.7-4.8l.1-21.4c-4.5,7.7-10.5,19.2-10.5,19.2M507.1,227.3c.5-6.2-15.1-3.9-14.8-13.7.5-13.2,18.3-8.5,20.4-7.1,0,0-2.2,5.2-2.3,5,0,0-10.9-3.2-11,1.5-.2,6.2,15,3.1,14.8,14.2-.3,14.6-21.4,7.3-22.4,6.8,0,0,2.3-5.3,2.4-5.3s12.5,4,12.9-1.4M598.8,205l3.2-.5v8.8h7.8v5.7h-7.8v7.7c-.1,6,7.9,2.8,7.9,2.7l1.6,5.6c-.8.3-5.6,1.2-7,1.4-8.6,1-9-6.6-9.1-9.6l-.1-17.9c.3-2,1.7-3.5,3.5-3.9M543.8,200.7l3.2-.5.1,36.3h-6.5l-.1-32.1c0-1.9,1.3-3.4,3.3-3.7M628.4,219.5c-.6-.1-3.7-1.2-7-.3l.1,17.3h-6.2l-.1-21.4c6.2-2.8,13.8-1,14.2-.8l-1,5.2ZM644,231.5v-4.7c-.3-.1-6.2-.6-6.3,2.3-.2,3.4,6,2.4,6.3,2.4M640.6,213.5c9.6-.6,9,7.6,9,9v12.9c-.8.2-6.8,1.1-8.9,1.1-1.4,0-8.5.3-8.6-7.2,0-1.3.4-8.8,11.9-6.5,0,0,.5-4.3-4.1-4.1-1.7.1-5.2.8-6.2.9l-.7-5c.4-.2,5.4-1,7.6-1.1M574,225c0-8.1,7.5-14.7,18.5-9.9l-1.4,4.8c-9.5-3-10.4,3.3-10.4,5.2s.6,8.3,11.2,5.2l.9,4.9c-12.8,4.2-18.8-2.4-18.8-10.2M564.7,222.8c-.5-4.1-3.3-4.3-4-4.3-3.7,0-4.1,3.7-4.3,4.3h8.3ZM550.1,225.2c-.1-1.9.7-11.9,10.6-11.8,10.4.1,10.2,11.5,10,13.7h-14.2c0,5.3,9.6,3.7,12.1,3.1l.8,5.1c-3,.7-18.7,4.9-19.3-10.1M531.5,222.8c-.5-4.1-3.3-4.3-4-4.3-3.7,0-4.1,3.7-4.3,4.3h8.3ZM516.8,225.2c-.1-1.9.7-11.9,10.6-11.8,10.4.1,10.2,11.5,10,13.7h-14.1c0,5.3,9.6,3.7,12.1,3.1l.8,5.1c-3.1.7-18.8,4.9-19.4-10.1"/>
  <path class="cls-43" d="M248.3,19.2l-.4.3c-2.1,2-4.5,3.5-7.2,4.5s-5.5,1.4-8.3,1.3-5.6-.9-8.1-2.1c-.1-.1-.2-.1-.4-.2s-.4-.2-.6-.3l-.9-.6c-.5-.2-.9-.6-1.4-.9l-.4-.3c-.5-.3-.9-.7-1.3-1l-.3-.3c-.1-.1-.2-.1-.2-.2l1.8-1.8c.3-.3.4-.7.3-1-.1-.4-.4-.7-.8-.8l-6.8-1.8c-.4-.1-.8,0-1,.3-.3.3-.4.7-.3,1l1.8,6.8c.1.4.4.7.8.8s.8,0,1-.3l1.8-1.8c.1.1.2.2.3.3l.4.4c.4.4.8.8,1.3,1.1l.3.2c.5.4,1,.8,1.6,1.1l1,.6c.2.1.5.2.7.4.1.1.2.1.4.2,2.8,1.2,5.8,1.9,8.9,2h.4c3,0,5.9-.6,8.5-1.7,2.8-1.2,5.4-2.9,7.4-5.1l.4-.4-.7-.7Z"/>
  <path class="cls-43" d="M292.7,8.7l-.5-.2c-2.7-1.3-5.7-2-8.7-2.1-2.8-.1-5.7.4-8.5,1.4-.1,0-.3.1-.4.1-2.9,1.2-5.4,2.9-7.6,5-.133.133-.233.233-.3.3-.1.3-.4.5-.5.6l-.7.9c-.5.5-.8,1-1.1,1.6l-.2.3c-.4.5-.6,1-.8,1.5l-.2.5c-.1.1-.1.3-.2.4l-2.3-1c-.3-.2-.7-.2-1,.1-.3.2-.5.6-.5,1l.7,7c0,.3.2.7.6.8.3.2.7.2,1-.1l5.7-4.1c.3-.2.5-.6.5-1,0-.3-.2-.7-.6-.8l-2.3-1c0-.1.1-.1.1-.3l.2-.4c.3-.4.5-.9.9-1.4l.3-.4c.4-.5.6-1,1-1.3l.6-.9c.2-.2.3-.3.5-.5s.2-.2.3-.3c1.9-2,4.2-3.8,6.8-4.8,2.6-1.1,5.3-1.7,8.2-1.7s5.7.5,8.3,1.6l.5.1s.2-.9.2-.9Z"/>
  <g>
    <rect class="cls-57" x="10.9" y="257.6" width="40" height="30"/>
    <path class="cls-41" d="M38.2,285.1c-3.3,0-6.4-1.3-8.8-3.6h0l-6.9-6.9c-.8-.8-1.2-1.9-1.2-3s.5-2.2,1.3-3,1.9-1.2,3-1.2h0c1.1,0,2.2.4,3,1.2l6.3,6.3c.7.7,1.9.7,2.7,0,.4-.4.6-.8.6-1.4,0-.5-.2-1-.6-1.4l-6.9-6.9c-1.9-1.9-4.5-2.9-7.1-2.9h0c-2.8,0-5.3,1.1-7.2,3-1.9,2-2.9,4.6-2.9,7.3.1,2.7,1.1,5.2,3,7.1s4.4,2.9,7.1,2.9c1,0,2-.1,2.9-.4.6-.2,1.3.2,1.4.8.2.6-.2,1.3-.8,1.4-1.1.3-2.3.5-3.5.5-3.3,0-6.4-1.3-8.8-3.6-2.4-2.3-3.7-5.4-3.7-8.7,0-1.7.3-3.4.9-4.9.6-1.5,1.5-2.9,2.6-4.1s2.5-2.1,4-2.7c1.6-.7,3.2-1,4.9-1h0c3.3,0,6.4,1.3,8.8,3.6h0l6.9,6.9c.8.8,1.2,1.9,1.2,3s-.5,2.2-1.3,3c-1.6,1.6-4.3,1.6-6,0l-6.3-6.3c-.7-.7-1.9-.7-2.7,0-.4.4-.6.8-.6,1.3s.2,1,.6,1.3l6.9,6.9c1.9,1.9,4.5,2.9,7.1,2.9,2.7,0,5.3-1.1,7.2-3s3-4.5,3-7.2-1.1-5.3-3-7.2c-1.9-1.9-4.5-3-7.2-3-.9,0-1.7.1-2.6.3-.1,0-.2.1-.4.1-.6.2-1.3-.2-1.4-.8-.2-.6.2-1.3.8-1.4.1,0,.3-.1.4-.1,1-.3,2.1-.4,3.1-.4,1.7,0,3.3.3,4.9,1,1.5.6,2.8,1.5,4,2.7,1.1,1.1,2,2.5,2.7,4s1,3.2,1,4.9c0,3.3-1.3,6.5-3.7,8.8-2.3,2.6-5.4,3.9-8.7,3.9h0Z"/>
  </g>
  <g>
    <rect class="cls-57" x="60.7" y="257.6" width="25" height="30"/>
    <path class="cls-54" d="M62.1,287.6c-.2,0-.3,0-.5-.1-.3-.2-.4-.5-.4-.9l2.5-15.4c.1-.8.6-1.6,1.2-2.1s1.4-.8,2.3-.8h10.4l.6-3.5h-1c-.4,0-.8-.2-1.1-.5s-.4-.8-.3-1.2l.7-4.1c.1-.7.7-1.2,1.4-1.2h3.9c1,0,2,.5,2.7,1.2s1,1.8.8,2.8l-1.6,9.6c-.1.4-.3.8-.7,1l-8.7,5.4c-.5.3-1.2.3-1.7-.1l-4-3.2c-.4-.3-.4-.9-.1-1.2.3-.4.9-.4,1.2-.1l3.9,3.1,8.4-5.2,1.5-9.4c.1-.5-.1-1-.4-1.4s-.8-.6-1.3-.6h-3.6l-.6,3.5h1c.4,0,.8.2,1.1.5s.4.8.3,1.2l-.7,4.1c-.1.7-.7,1.2-1.4,1.2h-10.7c-.9,0-1.6.6-1.7,1.5l-2.2,13.5,3.1-1.9c.2-.1.5-.2.8-.2h11.3c.9,0,1.6-.6,1.7-1.5l.7-4.3c.1-.5.5-.8,1-.7.5.1.8.5.7,1l-.7,4.3c-.1.8-.6,1.6-1.2,2.1s-1.4.8-2.3.8h-11.2l-4.7,2.9c-.1-.2-.2-.1-.4-.1h0Z"/>
  </g>
  <g>
    <rect class="cls-57" x="95.5" y="257.6" width="32" height="30"/>
    <g>
      <path class="cls-36" d="M127.2,277.2l-3.1-17.4c-.2-1.1-1.1-2-2.2-2.2s-2.2.2-2.9,1.2c-.3.4-.2,1,.3,1.3.4.3,1,.2,1.3-.3s.8-.4,1-.4c.1,0,.6.2.7.7l3.1,17.4c.1.4-.1.6-.2.8-.1.1-.3.3-.7.3h-17.8c-.5,0-.9.4-.9.9s.4.9.9.9h2.4l-1.7,4.6c-.1.4-.5.6-.9.6h-.8c-.4,0-.8-.3-.9-.8l-3.2-18.2,14.3-6.8c.5-.2.7-.8.4-1.2-.2-.5-.8-.7-1.2-.4l-17.7,8.4c-1.1.5-1.8,1.8-1.5,3l1.5,8.5c.2,1.3,1.4,2.3,2.7,2.3h2.1l.9,4.8c.2,1.3,1.4,2.3,2.7,2.3h.8c1.2,0,2.2-.7,2.6-1.8l1.9-5.3h13.5c.8,0,1.6-.4,2.1-1,.4-.5.7-1.3.5-2.2h0ZM100.1,278.7c-.4,0-.8-.3-.9-.8l-1.5-8.5c-.1-.4.1-.8.5-1l1.7-.8,2,11-1.8.1h0Z"/>
      <path class="cls-41" d="M111.1,272.2c-.4,0-.8-.1-1.2-.3l-4.2-2.1c-.5-.2-.6-.8-.4-1.2.2-.5.8-.6,1.2-.4l4.2,2.1c.4.2.9.1,1.2-.3l7.3-11.1c.3-.4.8-.5,1.3-.3.4.3.5.8.3,1.3l-7.3,11.1c-.6.8-1.5,1.2-2.4,1.2h0Z"/>
    </g>
  </g>
  <rect class="cls-57" x="137.8" y="257.6" width="34" height="30"/>
  <path class="cls-5" d="M170.3,282.4l-6-10.3,4.1-7.1.4,1.4c.1.4.5.7.9.7h.2c.5-.1.8-.6.7-1.1l-1-3.6c0-.2-.1-.3-.2-.4h0c-.067-.067-.133-.133-.2-.2h0l-3.6,1c-.5.1-.8.6-.7,1.1s.6.8,1.1.7l1.4-.4-3.6,6.2-6-10.3c-.5-.9-1.4-1.4-2.4-1.4s-1.9.5-2.4,1.4l-13,22.4c-.5.9-.5,1.9,0,2.8s1.4,1.4,2.4,1.4h3.3c.5,0,.9-.4.9-.9s-.4-.9-.9-.9h-3.3c-.5,0-.7-.3-.8-.5-.1-.1-.2-.5,0-.9l13-22.4c.2-.4.6-.5.8-.5s.6,0,.8.5l6.5,11.2-3.1,5.4-2.6-4.5c-.3-.6-.9-.9-1.6-.9s-1.3.3-1.6.9l-5.4,9.3c-.5.9-.5,1.9,0,2.8s1.4,1.4,2.4,1.4h17.6c1,0,1.9-.5,2.4-1.4,0-1,0-2-.5-2.9h0ZM168.7,284.3c-.1.1-.3.5-.8.5h-17.6c-.5,0-.7-.3-.8-.5s-.2-.5,0-.9l5.4-9.4,2.6,4.5c.3.6.9.9,1.6.9s1.3-.3,1.6-.9l2.6-4.5,5.4,9.4c.2.4,0,.7,0,.9Z"/>
  <g>
    <rect class="cls-57" x="181.6" y="257.6" width="31" height="30"/>
    <g>
      <g class="cls-81">
        <path class="cls-42" d="M201.2,280.5c-.1,0-.2,0-.3-.1l-4.7-1.8c-.5-.2-.7-.7-.5-1.1.2-.5.7-.7,1.1-.5l4.7,1.8c.5.2.7.7.5,1.1-.1.4-.5.6-.8.6Z"/>
      </g>
      <g class="cls-81">
        <path class="cls-42" d="M206.1,287.6c-3.4,0-6.1-2.7-6.1-6.1s2.7-6.1,6.1-6.1,6.1,2.7,6.1,6.1-2.8,6.1-6.1,6.1ZM206.1,277.1c-2.4,0-4.3,2-4.3,4.3s2,4.3,4.3,4.3,4.3-2,4.3-4.3-2-4.3-4.3-4.3Z"/>
      </g>
      <g class="cls-81">
        <path class="cls-42" d="M210.9,284.2c-.1,0-.2,0-.3-.1l-4.9-1.9c-.3-.1-.6-.5-.6-.8v-5.2c0-.5.4-.9.9-.9s.9.4.9.9v4.6l4.3,1.6c.5.2.7.7.5,1.1-.1.5-.4.7-.8.7h0Z"/>
      </g>
      <g class="cls-81">
        <path class="cls-6" d="M195.6,272.2c-.3,0-.5-.1-.7-.4-.3-.4-.2-.9.2-1.2l4.2-3.1c.4-.3.9-.2,1.2.2s.2.9-.2,1.2l-4.2,3.1c-.2.1-.3.2-.5.2h0Z"/>
      </g>
      <g class="cls-81">
        <path class="cls-6" d="M190,283.2c-2.1,0-4.1-.8-5.5-2.3-1.5-1.5-2.3-3.4-2.3-5.5s.8-4.1,2.3-5.5c1.5-1.5,3.4-2.3,5.5-2.3s4.1.8,5.5,2.3c1.5,1.5,2.3,3.4,2.3,5.5s-.8,4.1-2.3,5.5c-1.5,1.5-3.5,2.3-5.5,2.3ZM190,269.3c-3.3,0-6.1,2.7-6.1,6.1,0,3.3,2.7,6.1,6.1,6.1,3.3,0,6.1-2.7,6.1-6.1-.1-3.4-2.8-6.1-6.1-6.1Z"/>
      </g>
      <g class="cls-81">
        <path class="cls-6" d="M188,277.6c-.3,0-.5-.1-.7-.4-.3-.4-.2-.9.2-1.2l1.6-1.1v-2.9c0-.5.4-.9.9-.9s.9.4.9.9v3.3c0,.3-.1.5-.4.7l-1.9,1.4c-.2.2-.4.2-.6.2Z"/>
      </g>
      <g class="cls-81">
        <path class="cls-22" d="M203.5,271c-3,0-5.5-2.5-5.5-5.5s2.5-5.5,5.5-5.5,5.5,2.5,5.5,5.5c0,3.1-2.4,5.5-5.5,5.5ZM203.5,261.8c-2.1,0-3.7,1.7-3.7,3.7,0,2.1,1.7,3.7,3.7,3.7,2.1,0,3.7-1.7,3.7-3.7.1-2-1.6-3.7-3.7-3.7Z"/>
      </g>
      <g class="cls-81">
        <path class="cls-22" d="M199.2,264.8c-.1,0-.2,0-.3-.1l-4.9-1.8c-.5-.2-.7-.7-.5-1.1.2-.5.7-.7,1.1-.5l4.9,1.8c.5.2.7.7.5,1.1-.1.3-.4.6-.8.6Z"/>
      </g>
      <g class="cls-81">
        <path class="cls-9" d="M191.9,264.6c-1.9,0-3.5-1.6-3.5-3.5s1.6-3.5,3.5-3.5,3.5,1.6,3.5,3.5-1.6,3.5-3.5,3.5ZM191.9,259.3c-1,0-1.8.8-1.8,1.8s.8,1.8,1.8,1.8,1.8-.8,1.8-1.8-.8-1.8-1.8-1.8Z"/>
      </g>
    </g>
  </g>
  <g>
    <rect class="cls-57" x="222.7" y="257.6" width="31" height="30"/>
    <g>
      <path class="cls-36" d="M252.9,286.1l-3.5-3.5c1.1-1.2,2-2.6,2.6-4.1.8-1.8,1.2-3.8,1.2-5.8s-.4-4-1.2-5.8-1.8-3.4-3.2-4.8-3-2.5-4.8-3.2c-1.9-.8-3.8-1.2-5.8-1.2s-4,.4-5.8,1.2c-1.8.8-3.4,1.8-4.8,3.2-1.4,1.4-2.5,3-3.2,4.8-.8,1.9-1.2,3.8-1.2,5.8s.4,4,1.2,5.8,1.8,3.4,3.2,4.8,3,2.5,4.8,3.2c1.9.8,3.8,1.2,5.8,1.2h14.1c.4,0,.7-.2.8-.5.1-.5.1-.9-.2-1.1h0ZM238.2,285.8c-1.8,0-3.5-.4-5.2-1-1.6-.7-3-1.6-4.2-2.8s-2.2-2.6-2.8-4.2c-.7-1.6-1-3.4-1-5.2s.4-3.5,1-5.2c.7-1.6,1.6-3,2.8-4.2s2.6-2.2,4.2-2.8c1.6-.7,3.4-1,5.2-1s3.5.4,5.2,1c1.6.7,3,1.6,4.2,2.8s2.2,2.6,2.8,4.2c.7,1.6,1,3.4,1,5.2s-.3,3.5-1,5.1c-.6,1.3-1.3,2.5-2.2,3.6l-7.8-7.8h1.2c.5,0,.9-.4.9-.9s-.4-.9-.9-.9h-3.3c-.2,0-.5.1-.6.3-.2.2-.3.5-.2.8v3.1c0,.5.4.9.9.9s.9-.4.9-.9v-1.1l11.1,11.1-12.2-.1h0Z"/>
      <path class="cls-36" d="M238.2,278.5c-3.3,0-5.9-2.7-5.9-5.9s2.7-5.9,5.9-5.9,5.9,2.7,5.9,5.9c0,.5-.1,1-.2,1.5-.1.5.2,1,.6,1.1.5.1,1-.2,1.1-.6.2-.6.3-1.3.3-2,0-2-.8-4-2.2-5.4-1.4-1.5-3.4-2.2-5.4-2.2s-4,.8-5.4,2.2c-1.4,1.5-2.2,3.4-2.2,5.4s.8,4,2.2,5.4c1.4,1.5,3.4,2.2,5.4,2.2.7,0,1.4-.1,2-.3.5-.1.7-.6.6-1.1-.1-.5-.6-.7-1.1-.6-.6.2-1.1.3-1.6.3h0Z"/>
    </g>
  </g>
  <g>
    <rect class="cls-57" x="263.7" y="257.6" width="34" height="30"/>
    <g>
      <g class="cls-81">
        <path class="cls-2" d="M276.9,286.1c-.2,0-.5-.1-.7-.3l-6.2-6.2c-.4-.4-.4-1,0-1.4s1-.4,1.4,0l6.2,6.2c.4.4.4,1,0,1.4-.2.2-.4.3-.7.3h0Z"/>
      </g>
      <g class="cls-81">
        <path class="cls-2" d="M276.9,274.8c-.2,0-.5-.1-.7-.3l-6.2-6.2c-.4-.4-.4-1,0-1.4s1-.4,1.4,0l6.2,6.2c.4.4.4,1,0,1.4-.2.2-.4.3-.7.3h0Z"/>
      </g>
      <g class="cls-81">
        <path class="cls-2" d="M276.9,280.4c-.2,0-.5-.1-.7-.3l-6.2-6.2c-.4-.4-.4-1,0-1.4s1-.4,1.4,0l6.2,6.2c.4.4.4,1,0,1.4-.2.2-.4.3-.7.3h0Z"/>
      </g>
      <g class="cls-81">
        <path class="cls-1" d="M284.2,278.8c-.2,0-.5-.1-.7-.3-.4-.4-.4-1,0-1.4l12.1-12.1c.4-.4,1-.4,1.4,0s.4,1,0,1.4l-12.1,12.1c-.2.2-.5.3-.7.3h0Z"/>
      </g>
      <g class="cls-81">
        <path class="cls-1" d="M284.2,273.2c-.2,0-.5-.1-.7-.3-.4-.4-.4-1,0-1.4l8.6-8.6-1.4-1.4-5.8,5.8c-.4.4-1,.4-1.4,0s-.4-1,0-1.4l6.5-6.5c.2-.2.4-.3.7-.3s.5.1.7.3l2.8,2.8c.4.4.4,1,0,1.4l-9.3,9.3c-.2.2-.5.3-.7.3h0Z"/>
      </g>
      <g class="cls-81">
        <path class="cls-35" d="M276.9,274.8c-.2,0-.5-.1-.7-.3-.4-.4-.4-1,0-1.4l7.2-7.2c.4-.4,1-.4,1.4,0s.4,1,0,1.4l-7.2,7.2c-.2.2-.4.3-.7.3h0Z"/>
      </g>
      <g class="cls-81">
        <path class="cls-35" d="M276.9,280.4c-.2,0-.5-.1-.7-.3-.4-.4-.4-1,0-1.4l7.3-7.3c.4-.4,1-.4,1.4,0s.4,1,0,1.4l-7.3,7.3c-.2.2-.4.3-.7.3h0Z"/>
      </g>
      <g class="cls-81">
        <path class="cls-35" d="M276.9,286.1c-.2,0-.5-.1-.7-.3-.4-.4-.4-1,0-1.4l7.3-7.3c.4-.4,1-.4,1.4,0s.4,1,0,1.4l-7.3,7.3c-.2.2-.4.3-.7.3h0Z"/>
      </g>
      <g class="cls-81">
        <path class="cls-39" d="M270.7,279.9c-.2,0-.5-.1-.7-.3l-5.6-5.6c-.2-.2-.3-.4-.3-.7s.1-.5.3-.7l5.6-5.6c.4-.4,1-.4,1.4,0s.4,1,0,1.4l-5,5,5,5c.4.4.4,1,0,1.4-.2,0-.5.1-.7.1h0Z"/>
      </g>
    </g>
  </g>
  <rect class="cls-57" x="307.3" y="257.6" width="26" height="30"/>
  <g>
    <path class="cls-10" d="M325.6,279c-1.6,1.3-3.5,1.9-5.5,1.9-4.4-.1-7.9-3.7-8-8-.1-2,.6-4,1.9-5.5.1-.1.1-.3,0-.4l-2.6-2.6c-.1-.1-.3-.1-.4,0h0c-2,2.3-3.1,5.3-3.1,8.4.1,6.7,5.6,12.2,12.3,12.3,3.1.1,6.1-1,8.4-3.1.1-.1.1-.3,0-.4h0l-2.6-2.6c-.1-.1-.3-.1-.4,0h0Z"/>
    <path class="cls-27" d="M328.6,271.1c-.067.067-.1.133-.1.2.4,2.3-.3,4.7-1.8,6.5-.1.1-.1.3,0,.4l2.6,2.6c.1.1.3.1.4,0h0c3-3.4,3.9-8.2,2.3-12.5-.1-.1-.2-.2-.4-.2,0,0-.1,0-.1.1l-2.9,2.9Z"/>
    <path class="cls-28" d="M327.7,268.7l3-3c-3.8-5.8-11.5-7.3-17.3-3.5-.5.3-.9.6-1.3,1-.1.1-.1.3,0,.4h0l2.6,2.6c.1.1.3.1.4,0,3.5-2.9,8.8-2.4,11.7,1.2.3.4.6.9.9,1.3h0Z"/>
    <path class="cls-48" d="M330.9,267.3c.4-.4.4-.9.2-1.3-.6-1-1.3-1.9-2.2-2.6h0c-.3-.3-.6-.5-.9-.8.5.4.6,1,.2,1.5l-7.9,7.8-2.3-2.3c-.4-.4-1.1-.4-1.5,0h0l-1.5,1.5c-.4.4-.4,1.1,0,1.5h0l4.5,4.5c.4.4,1.1.4,1.5,0h0l9.9-9.8h0Z"/>
    <g class="cls-77">
      <path class="cls-14" d="M331,266c-.6-1-1.3-1.9-2.2-2.6h0c-.3-.3-.6-.5-.9-.8.5.4.6,1,.2,1.5l-7.8,7.8-2.2-2.2c-.4-.4-1.1-.4-1.5,0h0l-1.5,1.5c-.4.4-.4,1.1,0,1.5h0l4.5,4.5c.4.4,1.1.4,1.5,0l9.8-9.8c.3-.4.4-.9.1-1.4Z"/>
    </g>
  </g>
  <g>
    <rect class="cls-57" x="342" y="255.6" width="175.6" height="36"/>
    <g>
      <g>
        <path class="cls-26" d="M428.9,283.9c-5,0-7.7-3.2-7.7-8.1,0-4.5,3.1-8,7.6-8,2.9,0,5.5,1.4,6.7,4.2l-2.5,1c-.7-1.7-2.2-2.9-4.1-2.9-3.3,0-4.6,2.8-4.6,5.7s1.4,5.5,4.7,5.5c2.1,0,3.5-1.2,4.3-3.1l2.4,1c-.7,2.2-2.5,3.7-4.5,4.2-.7.4-1.5.5-2.3.5h0Z"/>
        <path class="cls-26" d="M440.8,277.4v6.2h-3v-15.5h5.6c3.1,0,5.8,1.1,5.8,4.7,0,2.2-1.3,3.7-3.4,4.2l4.4,6.7h-3.2l-4-6.2c-.1-.1-2.2-.1-2.2-.1h0ZM440.8,275.3h2.5c1.7,0,3-.7,3-2.6s-1.4-2.3-3-2.3h-2.5v4.9Z"/>
        <path class="cls-26" d="M454.9,271.8v11.8h-2.7v-15.5h3.8l4.5,11.3,4.4-11.3h3.7v15.5h-2.8v-11.8l-4.9,11.8h-1.4l-4.6-11.8Z"/>
        <path class="cls-26" d="M479.5,277.8v5.9h-3v-15.5h5.4c3.3,0,5.8,1.3,5.8,4.9,0,3.9-3.1,4.8-6.4,4.8h-.9c-.3-.1-.6-.1-.9-.1h0ZM479.5,275.6h2.3c1.9,0,2.9-.8,2.9-2.7s-1.1-2.6-2.9-2.6h-2.3v5.3h0Z"/>
        <path class="cls-26" d="M492.4,266.5v17.1h-2.7v-16l2.7-1.1Z"/>
        <path class="cls-26" d="M499.1,283.9c-2.7,0-4.1-1.7-4.1-4.3v-7.4h2.7v7c0,1.5.7,2.5,2.3,2.5s2.7-1.1,2.7-2.7v-6.8h2.7v11.3h-2.7v-1.7c-.5,1-1.5,1.6-2.6,1.9-.3.1-.6.2-1,.2Z"/>
        <path class="cls-26" d="M512.2,283.9c-2,0-4.1-.7-4.9-2.7l2.1-.9c.4,1.1,1.6,1.6,2.7,1.6,1,0,2.1-.3,2.1-1.5,0-2.5-6.6-.5-6.6-5,0-2.3,2.2-3.4,4.4-3.4,1.8,0,3.8.7,4.6,2.5l-2,.9c-.4-1-1.5-1.4-2.6-1.4-.8,0-1.8.4-1.8,1.3,0,2.3,6.6.4,6.6,4.9,0,2-1.3,3.1-2.9,3.5-.5.1-1.1.2-1.7.2h0Z"/>
      </g>
      <g>
        <g>
          <polygon class="cls-25" points="412.7 266.8 412.7 283.3 410.5 285.6 410.5 269.3 412.7 266.8"/>
          <rect class="cls-11" x="395.3" y="269.3" width="15.2" height="16.3"/>
          <polygon class="cls-37" points="397.7 266.8 395.3 269.3 410.5 269.3 412.7 266.8 397.7 266.8"/>
        </g>
        <polygon class="cls-55" points="378.9 267.5 393.9 265.4 392.6 268.9 377.9 271 378.9 267.5"/>
        <polygon class="cls-12" points="392.6 268.9 394.7 283.5 379.9 285.6 377.9 271 392.6 268.9"/>
        <polyline class="cls-53" points="392.6 268.9 394.7 283.5 395.8 280.3 393.9 265.4 393.9 265.4"/>
        <polygon class="cls-13" points="366.3 266.2 379.5 272.2 373.6 285.7 360.4 279.7 366.3 266.2"/>
        <polygon class="cls-34" points="364.9 261.6 366.3 266.2 379.5 272.2 378.4 267.7 364.9 261.6"/>
        <polygon class="cls-58" points="364.9 261.6 359.6 274.2 360.4 279.7 366.3 266.2 364.9 261.6"/>
        <polygon class="cls-20" points="357.6 268.9 359.8 283.2 345.2 285.5 342.8 271.2 357.6 268.9"/>
        <polygon class="cls-24" points="358.6 263.7 360.7 278.2 359.8 283.2 357.6 268.9 358.6 263.7"/>
        <path class="cls-57" d="M408.1,275.2c-.3-.8-.8-1.4-1.3-2-.6-.6-1.2-1-1.9-1.3-.7-.3-1.4-.4-2.2-.4s-1.6.1-2.3.4c-.7.3-1.3.7-1.9,1.3-.6.6-1,1.3-1.3,2-.3.8-.4,1.6-.4,2.5s.1,1.7.4,2.5.8,1.5,1.3,2.1,1.1,1,1.9,1.3c.7.3,1.5.4,2.3.4s1.6-.1,2.2-.4c.7-.3,1.3-.7,1.9-1.3.6-.6,1-1.3,1.3-2.1.3-.8.5-1.6.5-2.5,0-1-.1-1.8-.5-2.5ZM405,280.5c-.6.7-1.4,1-2.4,1s-1.8-.4-2.4-1c-.6-.7-.9-1.7-.9-2.9,0-1.3.3-2.2.9-2.9.5-.7,1.4-1,2.4-1s1.8.4,2.4,1c.6.7.9,1.7.9,2.9s-.3,2.2-.9,2.9ZM352.6,277.2h0ZM356.1,281c-.1-.1-.3-.2-.5-.3s-.4-.1-.7-.1-.5.1-.9.1l-3.9.7c.1-.3.2-.7.4-1.2.3-.5.7-1.2,1.3-1.9h0c.2-.3.3-.4.4-.6.1-.1.2-.2.3-.4.9-1.1,1.4-2.1,1.6-2.8.1-.4.2-.9.2-1.3v-.4c0-.3-.1-.6-.1-.9-.1-.3-.1-.5-.2-.7s-.2-.3-.3-.4c-.2-.1-.4-.1-.7-.1-.2,0-.5.1-.9.1l-4.4.8c-.5.1-.9.2-1.2.5-.2.2-.3.4-.3.7,0,.067.033.133.1.2.1.4.3.7.6.8.2.1.4.1.7.1.2,0,.4-.1.6-.1l3.8-.7v.2c0,.2-.1.4-.1.7-.1.3-.4.7-.8,1.3-.2.2-.3.4-.6.8-1,1.2-1.7,2.3-2.1,3.1h0c-.3.6-.5,1.2-.7,1.7-.1.3-.1.7-.1,1,0,.2.1.4.1.7.1.3.1.5.2.7s.2.3.4.4c.1.1.3.1.7.1s.9-.1,1.5-.2l4-.7c.7-.1,1.2-.3,1.5-.5.2-.2.3-.4.3-.8,0-.1,0-.2-.1-.2,0-.1,0-.3-.1-.4h0ZM374.3,271.3c-.5-.5-1.1-1-1.9-1.3s-1.5-.4-2.2-.4h-.1c-.8,0-1.5.2-2.2.5h0c-.8.3-1.4.8-2,1.4s-1,1.3-1.4,2.2c-.3.9-.5,1.7-.6,2.5v.3c0,.7.1,1.5.4,2.2s.7,1.4,1.2,2c.5.5,1.1,1,2,1.3h0c.8.3,1.5.4,2.2.4h.1c.8,0,1.5-.2,2.2-.5h0c.8-.4,1.4-.8,2.1-1.4.6-.6,1-1.3,1.4-2.2.3-.9.5-1.7.6-2.5v-.2c0-.8-.1-1.5-.4-2.2-.4-.9-.8-1.6-1.4-2.1h0ZM372.9,277.2c-.5,1.2-1.1,2-2,2.4-.4.2-.9.4-1.3.4s-.8-.1-1.3-.3c-.9-.4-1.5-1-1.7-1.9-.1-.3-.1-.7-.1-1,0-.7.2-1.4.5-2.1.5-1.2,1.1-2,2-2.5.4-.2.9-.4,1.3-.4s.8.1,1.3.3c.9.4,1.5,1,1.7,1.9.1.3.1.6.1.9,0,.7-.2,1.5-.5,2.3h0ZM390.1,271.7c-.1-.4-.2-.8-.5-1-.2-.2-.4-.3-.8-.3-.067,0-.133.033-.2.1-.4.1-.7.2-.9.5-.1.2-.2.4-.2.8,0,.1,0,.2.1.4l.5,3.8-4.3.7-.5-3.8c-.1-.4-.2-.8-.5-1-.2-.2-.4-.3-.8-.3-.067,0-.133.033-.2.1-.4.1-.7.2-.9.5-.1.2-.2.4-.2.8,0,.1,0,.2.1.4l1.4,9.9c.1.4.2.8.5,1,.2.2.5.3.8.3.1,0,.2,0,.2-.1.3-.1.7-.2.8-.5.1-.2.2-.4.2-.7,0-.1,0-.2-.1-.4l-.6-3.9,4.3-.7.6,3.9c.1.4.2.8.5,1,.2.2.5.3.8.3.067,0,.133-.033.2-.1.4-.1.7-.2.9-.5.1-.2.2-.4.2-.7,0-.1,0-.2-.1-.4l-1.3-10.1h0Z"/>
        <polygon class="cls-52" points="342.8 271.2 343.1 269.8 343.8 266.1 358.6 263.7 357.6 268.9 342.8 271.2"/>
      </g>
    </g>
  </g>
  <g>
    <g>
      <path class="cls-26" d="M170.4,355.7h-9.5v-28.4h9.6c9.3,0,14.9,4.9,14.9,14.3,0,6.9-3.3,11.4-8.8,13.2-1.9.6-3.9.9-6.2.9ZM166.4,351.4h3.9c6.6,0,9.3-3.9,9.3-10.2,0-6.4-2.9-9.8-9.4-9.8h-3.8v20h0Z"/>
      <path class="cls-26" d="M198.7,356.1c-6.6,0-10.7-4.4-10.7-10.9,0-6.1,4.2-10.8,10.4-10.8,7.2,0,10,4.9,10,11.5v.5h-15.4c.1,3.5,2,6.1,5.7,6.1,2.4,0,4.2-.9,5.3-3l3.9,1.7c-1.3,2.7-3.7,4.2-6.4,4.7-.9.1-1.8.2-2.8.2h0ZM193.2,343.1h10.3c-.2-3.2-1.7-5.1-5-5.1-2.3,0-3.9,1.3-4.7,3.1-.4.6-.5,1.3-.6,2Z"/>
      <path class="cls-26" d="M219.3,356.1c-3.6,0-7.5-1.3-8.8-5l3.8-1.6c.8,2,2.9,3,5,3,1.8,0,3.8-.5,3.8-2.7,0-4.5-12.1-.9-12.1-9.1,0-4.3,4.2-6.3,8-6.3,3.3,0,7,1.3,8.4,4.5l-3.7,1.6c-.8-1.8-2.8-2.6-4.7-2.6-1.5,0-3.3.7-3.3,2.4,0,4.3,12.2.7,12.2,9,0,3.7-2.3,5.7-5.3,6.4-1.1.3-2.2.4-3.3.4h0Z"/>
      <path class="cls-26" d="M236.3,345.6v10.2h-5v-30.5h5v18.7l7.5-9.1h5.4l-8.3,9.6,8.9,11.2h-5.7l-7.8-10.1h0Z"/>
    </g>
    <g>
      <g>
        <polygon class="cls-25" points="143.9 324.7 143.9 355.1 139.8 359.2 139.8 329.5 143.9 324.7"/>
        <rect class="cls-18" x="112" y="329.5" width="27.8" height="29.8"/>
        <polygon class="cls-37" points="116.4 324.7 112 329.5 139.8 329.5 143.9 324.7 116.4 324.7"/>
      </g>
      <polygon class="cls-55" points="82 326 109.3 322.2 107 328.8 80.1 332.5 82 326"/>
      <polygon class="cls-16" points="107 328.8 110.8 355.4 83.8 359.2 80.1 332.5 107 328.8"/>
      <polyline class="cls-53" points="107 328.8 110.8 355.4 112.8 349.7 109.3 322.4 109.3 322.2"/>
      <polygon class="cls-15" points="58.9 323.8 83.1 334.7 72.2 359.5 47.9 348.5 58.9 323.8"/>
      <polygon class="cls-34" points="56.3 315.3 58.9 323.8 83.1 334.7 81 326.6 56.3 315.3"/>
      <polygon class="cls-58" points="56.3 315.3 46.6 338.4 47.9 348.5 58.9 323.8 56.3 315.3"/>
      <polygon class="cls-19" points="42.9 328.8 46.8 355 20.1 359.2 15.8 332.9 42.9 328.8"/>
      <polygon class="cls-24" points="44.7 319.2 48.6 345.7 46.8 355 42.9 328.8 44.7 319.2"/>
      <path class="cls-57" d="M135.6,340.2c-.6-1.4-1.4-2.6-2.4-3.7s-2.2-1.9-3.5-2.4c-1.3-.6-2.7-.8-4.1-.8-1.5,0-2.9.3-4.2.8s-2.5,1.3-3.5,2.4c-1.1,1.1-1.9,2.3-2.4,3.7-.6,1.4-.8,2.9-.8,4.5s.3,3.1.8,4.5c.6,1.4,1.4,2.6,2.4,3.7,1,1,2.2,1.8,3.4,2.3,1.3.5,2.7.8,4.2.8s2.9-.3,4.1-.8c1.3-.5,2.5-1.3,3.5-2.3,1.1-1.1,1.9-2.4,2.4-3.7.6-1.4.8-2.9.8-4.5.1-1.6-.2-3.2-.7-4.5h0ZM129.8,350c-1.1,1.3-2.5,1.9-4.3,1.9-1.9,0-3.3-.7-4.4-1.9s-1.6-3-1.6-5.3.6-4.1,1.6-5.4,2.5-1.9,4.4-1.9,3.3.7,4.3,1.9c1.1,1.3,1.6,3.1,1.6,5.4.1,2.2-.5,4-1.6,5.3ZM33.7,344h0ZM40,350.8c-.2-.3-.5-.5-.9-.6s-.8-.2-1.3-.2-1,0-1.7.2l-7,1.2c0-.6.4-1.3.8-2.1.6-1,1.3-2.2,2.4-3.5h0c.4-.5.6-.9.8-1.1s.3-.4.6-.8c1.6-2.1,2.6-3.8,3-5.2.2-.8.4-1.6.4-2.3v-.7c0-.6,0-1.1-.2-1.7-.1-.5-.2-.9-.4-1.2-.2-.4-.4-.6-.6-.8-.3-.2-.7-.3-1.2-.3s-1,0-1.6.2l-8.2,1.4c-1,.2-1.7.5-2.2.9-.4.4-.6.8-.6,1.3v.4c.1.7.5,1.2,1.1,1.5.4.2.8.3,1.3.3.4,0,.7,0,1.1-.1l6.8-1.2v.4c0,.4,0,.9-.2,1.3-.2.6-.7,1.4-1.5,2.4-.3.3-.6.7-1.1,1.3-1.9,2.2-3.2,4.1-4,5.7h0c-.6,1.1-1,2.2-1.2,3.2-.1.6-.2,1.2-.2,1.8,0,.4,0,.8.1,1.2.1.6.3,1,.4,1.4.2.4.4.6.7.8.3.2.7.2,1.2.2.7,0,1.6-.1,2.8-.3l7.4-1.3c1.3-.2,2.2-.6,2.8-1,.4-.4.7-.8.7-1.4v-.5c0-.2-.1-.5-.3-.8h0ZM73.6,333.1c-1-1-2.1-1.8-3.5-2.4s-2.7-.9-4.1-.9h0c-1.4,0-2.8.3-4.1.9h0c-1.4.6-2.7,1.5-3.7,2.6-1,1.2-1.9,2.5-2.5,4-.7,1.5-1,3.1-1.1,4.6v.5c0,1.4.3,2.7.7,4,.5,1.4,1.2,2.6,2.2,3.6s2.1,1.8,3.5,2.4h0c1.3.6,2.7.9,4.1.9h.1c1.4,0,2.8-.3,4.1-.9h0c1.4-.7,2.7-1.5,3.7-2.6s1.9-2.4,2.6-4,1-3.1,1.1-4.6v-.5c0-1.4-.3-2.7-.7-4-.8-1.4-1.5-2.6-2.4-3.6ZM70.9,343.9c-.9,2.2-2.1,3.6-3.6,4.4-.8.5-1.6.7-2.5.7-.8,0-1.5-.2-2.3-.5-1.7-.7-2.8-1.9-3.2-3.5-.1-.5-.2-1.1-.2-1.7,0-1.2.3-2.5.9-4,1-2.2,2.2-3.7,3.6-4.5.8-.5,1.6-.7,2.5-.7.8,0,1.5.2,2.3.5,1.7.7,2.7,1.9,3.2,3.5.2.6.2,1.1.2,1.7,0,1.2-.3,2.6-.9,4.1ZM102.4,333.9c-.1-.8-.4-1.5-.9-1.9-.4-.4-.8-.5-1.4-.5h-.4c-.7.1-1.3.4-1.6,1-.3.4-.4.9-.4,1.4,0,.2,0,.4.1.7l1,6.9-7.8,1.2-1-6.9c-.1-.8-.4-1.4-.9-1.9-.4-.4-.8-.5-1.3-.5h-.4c-.7.1-1.3.4-1.6,1-.3.4-.4.9-.4,1.4,0,.2,0,.5.1.7l2.7,18c.1.8.4,1.5.9,1.9.4.3.9.5,1.4.5h.5c.7-.1,1.2-.4,1.5-1,.2-.4.4-.9.4-1.4,0-.2,0-.5-.1-.7l-1.1-7.1,7.8-1.2,1.1,7.1c.1.8.4,1.5.9,1.9.4.4.9.5,1.4.5h.4c.7-.1,1.2-.4,1.6-1,.3-.4.4-.9.4-1.4,0-.2,0-.5-.1-.7,0,0-2.8-18-2.8-18Z"/>
      <polygon class="cls-52" points="15.8 332.9 16.4 330.3 17.7 323.5 44.7 319.2 42.9 328.8 15.8 332.9"/>
    </g>
  </g>
  <path class="cls-41" d="M302.4,357c-5.2,0-10.1-2-13.9-5.8h0l-10.9-10.9c-1.2-1.2-2-3-2-4.8s.8-3.6,2-4.8c1.2-1.2,3-2,4.8-2h0c1.8,0,3.4.8,4.8,2l10,10c1.2,1.2,3.2,1.2,4.2,0,.6-.6.8-1.4,1-2.2,0-.8-.4-1.6-.8-2.2l-10.9-10.9c-3-3-7.2-4.6-11.3-4.6h0c-4.4,0-8.6,1.8-11.5,4.8-3,3.2-4.8,7.4-4.6,11.7,0,4.2,1.8,8.2,4.8,11.1,3,3,7.2,4.6,11.3,4.6,1.6,0,3.2-.2,4.6-.6,1-.2,2,.2,2.4,1.2.2,1-.2,2-1.2,2.4-1.8.6-3.8.8-5.6.8-5.2,0-10.1-2-13.9-5.8-3.8-3.6-5.8-8.6-6-13.7,0-2.8.4-5.4,1.4-8,1-2.4,2.4-4.6,4.2-6.4,1.8-1.8,4-3.4,6.4-4.4s5.2-1.6,7.8-1.6h0c5.2,0,10.1,2,13.9,5.8h0l10.9,10.9c1.2,1.2,2,3,2,4.8s-.8,3.6-2,4.8c-2.6,2.6-7,2.6-9.6,0l-10-10c-1.2-1.2-3-1.2-4.2,0-.6.6-.8,1.4-.8,2.2s.4,1.6.8,2.2l10.8,11c3,3,7.2,4.6,11.3,4.6,4.4,0,8.4-1.6,11.3-4.8,3-3.2,4.8-7.2,4.8-11.3,0-4.4-1.6-8.4-4.8-11.5-3.2-3.1-7.2-4.8-11.5-4.8-1.4,0-2.8.2-4,.6-.2,0-.4.2-.6.2-1,.2-2-.2-2.4-1.2-.2-1,.2-2,1.2-2.4.2,0,.4-.2.8-.2,1.6-.4,3.4-.6,5-.6,2.6,0,5.4.6,7.8,1.6s4.6,2.4,6.4,4.2c1.8,1.8,3.2,4,4.2,6.4s1.6,5,1.6,7.8c0,5.4-2,10.3-5.8,14.1-3.8,3.7-8.8,5.7-14.2,5.7h0Z"/>
  <g>
    <path class="cls-36" d="M443.2,345.4l-5.5-31.3c-.4-2-1.9-3.6-3.9-4s-4,.4-5.2,2.2c-.5.8-.3,1.8.5,2.3s1.8.3,2.3-.5c.6-.9,1.5-.8,1.7-.7.3.1,1.1.3,1.3,1.3l5.5,31.3c.1.7-.2,1.1-.4,1.4-.2.3-.6.6-1.3.6h-32c-.9,0-1.7.7-1.7,1.7,0,.9.7,1.7,1.7,1.7h4.3l-3,8.3c-.2.7-.9,1.1-1.6,1.1h-1.4c-.8,0-1.5-.6-1.6-1.4l-5.8-32.8,25.7-12.2c.8-.4,1.2-1.4.8-2.2-.4-.8-1.4-1.2-2.2-.8l-31.9,15.1c-2,1-3.2,3.2-2.8,5.4l2.7,15.3c.4,2.4,2.5,4.1,4.9,4.1h3.8l1.5,8.6c.4,2.4,2.5,4.1,4.9,4.1h1.4c2.1,0,4-1.3,4.7-3.3l3.4-9.5h24.2c1.5,0,2.9-.6,3.8-1.8,1-1.1,1.4-2.6,1.2-4h0ZM394.3,347.9c-.8,0-1.5-.6-1.6-1.4l-2.7-15.3c-.1-.7.3-1.5.9-1.8l3-1.4,3.5,19.9h-3.1,0Z"/>
    <path class="cls-41" d="M414.1,336.3c-.8,0-1.5-.2-2.2-.5l-7.6-3.8c-.8-.4-1.1-1.4-.7-2.2.4-.8,1.4-1.1,2.2-.7l7.6,3.8c.8.4,1.7.1,2.1-.6l13.1-20.1c.5-.8,1.5-1,2.3-.5s1,1.5.5,2.3l-13.1,20.1c-1,1.4-2.6,2.2-4.2,2.2h0Z"/>
  </g>
  <path class="cls-54" d="M328.4,368c-.4,0-.7-.1-1-.3-.6-.4-.9-1.1-.8-1.8l5.2-31.9c.3-1.7,1.2-3.3,2.5-4.4s3-1.7,4.7-1.7h21.4l1.2-7.3h-2c-.9,0-1.7-.4-2.3-1.1s-.8-1.6-.7-2.4l1.4-8.5c.2-1.5,1.5-2.5,3-2.5h8c2.1,0,4.2.9,5.5,2.6,1.4,1.6,2,3.8,1.6,5.9l-3.2,19.8c-.1.9-.6,1.6-1.4,2.1l-17.9,11.1c-1.1.7-2.5.6-3.5-.2l-8.3-6.7c-.8-.6-.9-1.8-.3-2.6s1.8-.9,2.6-.3l8,6.4,17.3-10.7,3.2-19.5c.2-1.1-.1-2.1-.8-2.9-.7-.8-1.7-1.3-2.8-1.3h-7.5l-1.2,7.3h2c.9,0,1.7.4,2.3,1.1s.8,1.6.7,2.4l-1.4,8.5c-.2,1.5-1.5,2.5-3,2.5h-21.9c-1.8,0-3.3,1.3-3.6,3.1l-4.5,28,6.4-4c.5-.3,1-.5,1.6-.5h23.3c1.8,0,3.3-1.3,3.6-3.1l1.5-9c.2-1,1.1-1.7,2.1-1.5s1.7,1.1,1.5,2.1l-1.5,9c-.3,1.7-1.2,3.3-2.5,4.4s-3,1.7-4.7,1.7h-23.2l-9.6,6c-.3.1-.7.2-1,.2h0Z"/>
  <path class="cls-41" d="M490.5,329.2c-2.6,0-5.1-1-7-2.9h0l-5.5-5.5c-.6-.6-1-1.5-1-2.4s.4-1.8,1-2.4,1.5-1,2.4-1h0c.9,0,1.7.4,2.4,1l5,5c.6.6,1.6.6,2.1,0,.3-.3.4-.7.5-1.1,0-.4-.2-.8-.4-1.1l-5.5-5.5c-1.5-1.5-3.6-2.3-5.7-2.3h0c-2.2,0-4.3.9-5.8,2.4-1.5,1.6-2.4,3.7-2.3,5.9,0,2.1.9,4.1,2.4,5.6s3.6,2.3,5.7,2.3c.8,0,1.6-.1,2.3-.3.5-.1,1,.1,1.2.6.1.5-.1,1-.6,1.2-.9.3-1.9.4-2.8.4-2.6,0-5.1-1-7-2.9-1.9-1.8-2.9-4.3-3-6.9,0-1.4.2-2.7.7-4,.5-1.2,1.2-2.3,2.1-3.2.9-.9,2-1.7,3.2-2.2s2.6-.8,3.9-.8h0c2.6,0,5.1,1,7,2.9h0l5.5,5.5c.6.6,1,1.5,1,2.4s-.4,1.8-1,2.4c-1.3,1.3-3.5,1.3-4.8,0l-5-5c-.6-.6-1.5-.6-2.1,0-.3.3-.4.7-.4,1.1s.2.8.4,1.1l5.5,5.5c1.5,1.5,3.6,2.3,5.7,2.3,2.2,0,4.2-.8,5.7-2.4s2.4-3.6,2.4-5.7c0-2.2-.8-4.2-2.4-5.8s-3.6-2.4-5.8-2.4c-.7,0-1.4.1-2,.3-.1,0-.2.1-.3.1-.5.1-1-.1-1.2-.6-.1-.5.1-1,.6-1.2.1,0,.2-.1.4-.1.8-.2,1.7-.3,2.5-.3,1.3,0,2.7.3,3.9.8,1.2.5,2.3,1.2,3.2,2.1.9.9,1.6,2,2.1,3.2s.8,2.5.8,3.9c0,2.7-1,5.2-2.9,7.1s-4.4,2.9-7.1,2.9h0Z"/>
  <g>
    <path class="cls-36" d="M628,322.3l-2-11.6c-.1-.8-.7-1.3-1.4-1.5s-1.5.2-1.9.8c-.2.3-.1.7.2.9.3.2.7.1.9-.2,0-.3.3-.3.4-.3s.4.1.5.5l2,11.6c0,.2-.1.4-.1.5s-.2.2-.5.2h-11.9c-.3,0-.6.3-.6.6s.3.6.6.6h1.6l-1.1,3.1c-.1.2-.3.4-.6.4h-.5c-.3,0-.6-.2-.6-.5l-2.1-12.1,9.5-4.5c.3-.1.4-.5.3-.8-.1-.3-.5-.4-.8-.3l-11.8,5.6c-.7.4-1.2,1.2-1,2l1,5.7c.2.9.9,1.5,1.8,1.5h1.4l.6,3.2c.2.9.9,1.5,1.8,1.5h.5c.8,0,1.5-.5,1.7-1.2l1.3-3.5h9c.5,0,1.1-.2,1.4-.7.3-.4.5-1,.4-1.5h0ZM609.9,323.2c-.3,0-.6-.2-.6-.5l-1-5.7c0-.3.1-.5.3-.7l1.1-.5,1.3,7.4h-1.1Z"/>
    <path class="cls-41" d="M617.2,318.9c-.3,0-.6-.1-.8-.2l-2.8-1.4c-.3-.2-.4-.5-.3-.8.2-.3.5-.4.8-.3l2.8,1.4c.3.1.6,0,.8-.2l4.8-7.4c.2-.3.6-.4.9-.2.3.2.4.6.2.9l-4.8,7.4c-.4.5-1,.8-1.6.8h0Z"/>
  </g>
  <path class="cls-5" d="M526.9,326.2l-4.3-7.3,3-5.1.3,1c.1.3.3.5.6.5h.2c.4-.1.6-.5.5-.8l-.7-2.6h-.1l-3.3.2c-.4.1-.6.5-.5.8.1.4.5.6.8.5l1-.3-2.6,4.4-4.3-7.4c-.4-.6-1-1-1.7-1s-1.4.4-1.7,1l-9.3,16c-.4.6-.4,1.4,0,2s1,1,1.7,1h2.4c.4,0,.7-.3.7-.7s-.3-.7-.7-.7h-2.4c-.3,0-.5-.2-.6-.3s-.2-.4,0-.7l9.3-16c.2-.3.5-.3.6-.3s.4,0,.6.3l4.7,8-2.2,3.9h0l-1.8-3.2c-.2-.4-.7-.7-1.1-.7h0c-.5,0-.9.2-1.1.7l-3.9,6.7c-.4.6-.4,1.4,0,2s1,1,1.7,1h12.6c.7,0,1.4-.4,1.7-1,.3-.5.3-1.3-.1-1.9h0ZM525.8,327.5c-.1.1-.2.3-.6.3h-12.6c-.3,0-.5-.2-.6-.3s-.2-.4,0-.7l3.9-6.7,1.8,3.2c.2.4.7.7,1.1.7h0c.5,0,.9-.2,1.1-.7l1.9-3.2,3.9,6.7c.3.4.1.6.1.7h0Z"/>
  <g>
    <g class="cls-81">
      <path class="cls-42" d="M644.6,324.4h-.2l-3.1-1.2c-.3-.1-.5-.5-.3-.8.1-.3.5-.5.8-.3l3.1,1.2c.3.1.5.5.3.8-.2.2-.4.3-.6.3Z"/>
    </g>
    <g class="cls-81">
      <path class="cls-42" d="M647.8,329.2c-2.2,0-4.1-1.8-4.1-4.1s1.8-4.1,4.1-4.1c2.2,0,4.1,1.8,4.1,4.1s-1.8,4.1-4.1,4.1ZM647.8,322.2c-1.6,0-2.9,1.3-2.9,2.9s1.3,2.9,2.9,2.9,2.9-1.3,2.9-2.9-1.3-2.9-2.9-2.9Z"/>
    </g>
    <g class="cls-81">
      <path class="cls-42" d="M651.1,326.9h-.2l-3.3-1.2c-.2-.1-.4-.3-.4-.5v-3.4c0-.3.3-.6.6-.6s.6.3.6.6v3l2.9,1.1c.3.1.5.5.3.8,0,.1-.3.2-.5.2h0Z"/>
    </g>
    <g class="cls-81">
      <path class="cls-6" d="M640.9,318.9c-.2,0-.4-.1-.5-.2-.2-.3-.1-.6.1-.8l2.8-2c.3-.2.6-.1.8.1.2.3.1.6-.1.8l-2.8,2c-.1.1-.2.1-.3.1Z"/>
    </g>
    <g class="cls-81">
      <path class="cls-6" d="M637.1,326.2c-1.4,0-2.7-.5-3.7-1.5s-1.5-2.3-1.5-3.7.5-2.7,1.5-3.7,2.3-1.5,3.7-1.5,2.7.5,3.7,1.5,1.5,2.3,1.5,3.7-.5,2.7-1.5,3.7-2.3,1.5-3.7,1.5ZM637.1,317c-2.2,0-4,1.8-4,4s1.8,4,4,4,4-1.8,4-4-1.8-4-4-4Z"/>
    </g>
    <g class="cls-81">
      <path class="cls-6" d="M635.8,322.5c-.2,0-.4-.1-.5-.2-.2-.3-.1-.6.1-.8l1-.7v-1.9c0-.3.3-.6.6-.6s.6.3.6.6v2.2c0,.2-.1.4-.2.5l-1.3.9h-.3,0Z"/>
    </g>
    <g class="cls-81">
      <path class="cls-22" d="M646.2,318.1c-2,0-3.7-1.6-3.7-3.7s1.6-3.7,3.7-3.7c2,0,3.7,1.6,3.7,3.7s-1.7,3.7-3.7,3.7ZM646.2,312c-1.4,0-2.5,1.1-2.5,2.5s1.1,2.5,2.5,2.5,2.5-1.1,2.5-2.5-1.2-2.5-2.5-2.5Z"/>
    </g>
    <g class="cls-81">
      <path class="cls-22" d="M643.3,314h-.2l-3.2-1.2c-.3-.1-.5-.5-.3-.8.1-.3.5-.5.8-.3l3.2,1.2c.3.1.5.5.3.8-.2.1-.4.3-.6.3Z"/>
    </g>
    <g class="cls-81">
      <path class="cls-9" d="M638.4,313.9c-1.3,0-2.3-1.1-2.3-2.3s1.1-2.3,2.3-2.3c1.3,0,2.3,1.1,2.3,2.3s-1,2.3-2.3,2.3ZM638.4,310.3c-.6,0-1.2.5-1.2,1.2,0,.6.5,1.2,1.2,1.2.6,0,1.2-.5,1.2-1.2,0-.6-.5-1.2-1.2-1.2Z"/>
    </g>
  </g>
  <g>
    <path class="cls-29" d="M569.5,324.3c-1.2,1-2.8,1.5-4.4,1.5-3.5-.1-6.3-2.9-6.4-6.4-.1-1.6.5-3.2,1.5-4.4.1-.1.1-.2,0-.3l-2.1-2.1c-.1-.1-.2-.1-.3,0h0c-1.6,1.8-2.5,4.2-2.5,6.7.1,5.3,4.5,9.8,9.9,9.9,2.5,0,4.9-.8,6.7-2.5.1-.1.1-.2,0-.3h0l-2.1-2.1h-.3Z"/>
    <path class="cls-31" d="M571.9,318s-.1.1-.1.2c.3,1.9-.2,3.7-1.4,5.2-.1.1-.1.2,0,.3l2.1,2.1c.1.1.2.1.3,0h0c2.4-2.8,3.1-6.6,1.9-10,0-.1-.2-.2-.3-.1h-.1l-2.4,2.3Z"/>
    <path class="cls-30" d="M571.2,316.1l2.4-2.4c-3-4.6-9.2-5.9-13.8-2.8-.4.2-.7.5-1,.8-.1.1-.1.2,0,.3h0l2.1,2.1c.1.1.2.1.3,0,2.8-2.3,7-1.9,9.4.9.1.4.3.7.6,1.1Z"/>
    <path class="cls-17" d="M573.7,315c.3-.3.3-.7.1-1-.5-.8-1.1-1.5-1.7-2.1h0c-.2-.2-.5-.4-.8-.6.4.3.5.8.2,1.2l-6.3,6.3-1.8-1.8c-.3-.3-.9-.3-1.2,0h0l-1.2,1.2c-.3.3-.3.9,0,1.2h0l3.6,3.6c.3.3.9.3,1.2,0h0l7.9-8h0Z"/>
    <g class="cls-78">
      <path class="cls-21" d="M573.8,314c-.5-.8-1.1-1.5-1.7-2.1h0c-.2-.2-.5-.4-.8-.6.4.3.5.8.2,1.2l-6.3,6.3-1.8-1.8c-.3-.3-.9-.3-1.2,0h0l-1.2,1.2c-.3.3-.3.9,0,1.2h0l3.6,3.6c.3.3.9.3,1.2,0l7.9-7.9c.3-.3.3-.8.1-1.1h0Z"/>
    </g>
  </g>
  <g>
    <path class="cls-36" d="M676.1,328.2l-2.4-2.4c.7-.8,1.3-1.7,1.7-2.8.5-1.2.8-2.5.8-3.9,0-1.3-.3-2.7-.8-3.9-.5-1.2-1.2-2.3-2.1-3.2-.9-.9-2-1.6-3.2-2.1s-2.5-.8-3.9-.8-2.7.3-3.9.8c-1.2.6-2.2,1.3-3.2,2.2-.9.9-1.6,2-2.1,3.2s-.8,2.5-.8,3.9c0,1.3.3,2.7.8,3.9.5,1.2,1.2,2.3,2.1,3.2.9.9,2,1.6,3.2,2.1s2.5.8,3.9.8h9.4c.2,0,.5-.1.5-.4.2-.2.1-.5,0-.6h0ZM666.2,328c-1.2,0-2.3-.2-3.4-.7-1.1-.4-2-1.1-2.8-1.9s-1.4-1.8-1.9-2.8c-.5-1.1-.7-2.2-.7-3.4s.2-2.3.7-3.4c.4-1.1,1.1-2,1.9-2.8.8-.8,1.8-1.4,2.8-1.9,1.1-.5,2.2-.7,3.4-.7s2.3.2,3.4.7c1.1.4,2,1.1,2.8,1.9s1.4,1.8,1.9,2.8c.5,1.1.7,2.2.7,3.4s-.2,2.3-.7,3.4c-.4.9-.9,1.7-1.5,2.4l-5.2-5.2h.8c.3,0,.6-.3.6-.6s-.3-.6-.6-.6h-2.2c-.2,0-.3.1-.4.2-.1.1-.2.3-.2.5v2.1c0,.3.3.6.6.6s.6-.3.6-.6v-.8l7.4,7.4h-8,0Z"/>
    <path class="cls-36" d="M666.2,323.1c-2.2,0-3.9-1.8-3.9-3.9,0-2.2,1.8-3.9,3.9-3.9,2.2,0,3.9,1.8,3.9,3.9,0,.3,0,.7-.1,1s.1.6.4.7c.3.1.6-.1.7-.4.1-.4.2-.9.2-1.3,0-1.4-.5-2.7-1.5-3.6s-2.3-1.5-3.6-1.5c-1.4,0-2.7.5-3.6,1.5-1,1-1.5,2.3-1.5,3.6,0,1.4.5,2.7,1.5,3.6,1,1,2.3,1.5,3.6,1.5.5,0,.9-.1,1.4-.2.3-.1.5-.4.4-.7s-.4-.5-.7-.4c-.4.1-.7.1-1.1.1h0Z"/>
  </g>
  <g>
    <g class="cls-81">
      <path class="cls-40" d="M588.8,329.2c-.2,0-.4-.1-.5-.2l-4.6-4.6c-.3-.3-.3-.7,0-1s.7-.3,1,0l4.6,4.6c.3.3.3.7,0,1-.1.1-.3.2-.5.2Z"/>
    </g>
    <g class="cls-81">
      <path class="cls-40" d="M588.8,320.8c-.2,0-.4-.1-.5-.2l-4.6-4.6c-.3-.3-.3-.7,0-1s.7-.3,1,0l4.6,4.6c.3.3.3.7,0,1-.1.1-.3.2-.5.2Z"/>
    </g>
    <g class="cls-81">
      <path class="cls-40" d="M588.8,325c-.2,0-.4-.1-.5-.2l-4.6-4.6c-.3-.3-.3-.7,0-1s.7-.3,1,0l4.6,4.6c.3.3.3.7,0,1-.1.1-.3.2-.5.2Z"/>
    </g>
    <g class="cls-81">
      <path class="cls-56" d="M594.2,323.8c-.2,0-.4-.1-.5-.2-.3-.3-.3-.7,0-1l9-9c.3-.3.7-.3,1,0s.3.7,0,1l-9,9c-.1.1-.3.2-.5.2Z"/>
    </g>
    <g class="cls-81">
      <path class="cls-56" d="M594.2,319.6c-.2,0-.4-.1-.5-.2-.3-.3-.3-.7,0-1l6.4-6.4-1.1-1.1-4.3,4.3c-.3.3-.7.3-1,0s-.3-.7,0-1l4.8-4.8c.1-.1.3-.2.5-.2s.4.1.5.2l2.1,2.1c.3.3.3.7,0,1l-6.9,6.9c-.1.1-.3.2-.5.2Z"/>
    </g>
    <g class="cls-81">
      <path class="cls-3" d="M588.8,320.8c-.2,0-.4-.1-.5-.2-.3-.3-.3-.7,0-1l5.4-5.4c.3-.3.7-.3,1,0s.3.7,0,1l-5.4,5.4c-.1.1-.3.2-.5.2Z"/>
    </g>
    <g class="cls-81">
      <path class="cls-3" d="M588.8,325c-.2,0-.4-.1-.5-.2-.3-.3-.3-.7,0-1l5.4-5.4c.3-.3.7-.3,1,0s.3.7,0,1l-5.4,5.4c-.1.1-.3.2-.5.2Z"/>
    </g>
    <g class="cls-81">
      <path class="cls-3" d="M588.8,329.2c-.2,0-.4-.1-.5-.2-.3-.3-.3-.7,0-1l5.4-5.4c.3-.3.7-.3,1,0s.3.7,0,1l-5.4,5.4c-.1.1-.3.2-.5.2Z"/>
    </g>
    <g class="cls-81">
      <path class="cls-5" d="M584.2,324.6c-.2,0-.4-.1-.5-.2l-4.2-4.2c-.1-.1-.2-.3-.2-.5s.1-.4.2-.5l4.2-4.2c.3-.3.7-.3,1,0s.3.7,0,1l-3.7,3.7,3.7,3.7c.3.3.3.7,0,1-.1.1-.3.2-.5.2Z"/>
    </g>
  </g>
  <path class="cls-54" d="M533.9,329.2c-.1,0-.2,0-.3-.1-.2-.1-.3-.4-.3-.6l1.7-10.3c.1-.5.4-1,.8-1.4.4-.4,1-.6,1.5-.6h6.9l.4-2.4h-.6c-.3,0-.6-.1-.7-.3-.2-.2-.3-.5-.2-.8l.4-2.7c.1-.5.5-.8,1-.8h2.6c.7,0,1.3.3,1.8.8.4.5.6,1.2.5,1.9l-1,6.4c0,.3-.2.5-.4.7l-5.8,3.6c-.3.2-.8.2-1.1-.1l-2.7-2.1c-.3-.2-.3-.6-.1-.8.2-.3.6-.3.8-.1l2.6,2.1,5.6-3.5,1-6.3c.1-.3,0-.7-.3-.9-.2-.3-.5-.4-.9-.4h-2.4l-.4,2.3h.6c.3,0,.6.1.7.3.2.2.3.5.2.8l-.4,2.8c-.1.5-.5.8-1,.8h-7.1c-.6,0-1.1.4-1.2,1l-1.5,9,2.1-1.3c.2-.1.3-.1.5-.1h7.6c.6,0,1.1-.4,1.2-1l.5-2.9c.1-.3.4-.5.7-.5.3.1.5.4.5.7l-.5,2.9c-.1.5-.4,1-.8,1.4-.4.4-1,.6-1.5.6h-7.5l-3.1,1.9c-.2-.1-.3,0-.4,0h0Z"/>
  <g>
    <circle class="cls-57" cx="312.1" cy="19.1" r="9"/>
    <g>
      <g class="cls-80">
        <polyline class="cls-69" points="309.5 20.6 312.1 23.3 318.8 13.9"/>
      </g>
      <circle id="SVGID" class="cls-59" cx="312.1" cy="19.1" r="9"/>
    </g>
  </g>
  <g>
    <circle class="cls-69" cx="549.25" cy="439.123" r="13.5"/>
    <polyline class="cls-70" points="542.85 439.223 547.85 444.623 559.25 431.723"/>
  </g>
  <g>
    <g class="cls-79">
      <polyline class="cls-69" points="587.347 442.823 589.947 445.523 596.647 436.123"/>
    </g>
    <circle id="SVGID-2" class="cls-59" cx="589.947" cy="441.323" r="9"/>
  </g>
  <g>
    <circle class="cls-57" cx="335.119" cy="19.1" r="9"/>
    <circle class="cls-71" cx="335.119" cy="19.1" r="9"/>
    <g>
      <line class="cls-66" x1="332.119" y1="22.6" x2="338.119" y2="15.6"/>
      <line class="cls-66" x1="338.119" y1="22.6" x2="332.119" y2="15.6"/>
    </g>
  </g>
  <g>
    <rect class="cls-57" x="174.331" y="405.179" width="190" height="60"/>
    <g>
      <g>
        <g>
          <path class="cls-26" d="M252.276,449.038c-1.293,3.97-5.045,6.047-9.088,6.047-6.739,0-10.454-4.28-10.454-10.855,0-6.01,4.171-10.654,10.345-10.654,3.952,0,7.413,1.894,8.997,5.646l-3.351,1.421c-.892-2.295-2.95-3.898-5.482-3.898-4.426,0-6.265,3.788-6.265,7.649,0,4.025,2.003,7.467,6.356,7.467,2.75,0,4.754-1.676,5.701-4.189l3.241,1.366h0Z"/>
          <path class="cls-26" d="M255.117,433.867h7.576c4.189,0,7.868,1.548,7.868,6.283,0,2.987-1.785,4.917-4.626,5.609l5.883,9.015h-4.371l-5.446-8.432h-2.823v8.432h-4.061v-20.907h0ZM262.584,443.556c2.331,0,4.043-.892,4.043-3.388,0-2.586-1.821-3.205-4.043-3.205h-3.406v6.593h3.406Z"/>
          <path class="cls-26" d="M274.495,433.867h5.136l6.028,15.244,5.992-15.244h5.008v20.926h-3.752v-15.954l-6.593,15.954h-1.803l-6.374-15.954v15.954h-3.643v-20.926h.001Z"/>
          <path class="cls-26" d="M307.369,433.867h7.267c4.407,0,7.85,1.767,7.85,6.593,0,5.3-4.189,6.447-8.669,6.447h-2.404v7.886h-4.061v-20.926h.017ZM314.618,443.993c2.495,0,3.916-1.038,3.916-3.551,0-2.623-1.548-3.479-3.916-3.479h-3.187v7.048h3.187v-.018Z"/>
          <path class="cls-26" d="M325.327,433.284l3.661-1.585v23.094h-3.661v-21.509Z"/>
          <path class="cls-26" d="M343.357,452.389c-.965,1.858-2.932,2.695-5.045,2.695-3.515,0-5.373-2.313-5.373-5.792v-9.798h3.661v9.343c0,2.094.965,3.369,3.096,3.369,2.295,0,3.679-1.475,3.679-3.661v-9.07h3.643v15.299h-3.643v-2.386h-.018Z"/>
          <path class="cls-26" d="M352.646,450.222c.565,1.493,2.131,2.222,3.788,2.222,1.184,0,2.659-.364,2.659-1.821,0-1.53-1.657-1.894-3.551-2.295-2.459-.51-5.209-1.111-5.209-4.553,0-3.151,2.932-4.644,5.701-4.644,2.422,0,5.209.911,6.211,3.333l-2.714,1.166c-.601-1.366-2.094-1.876-3.351-1.876-1.22,0-2.386.492-2.386,1.73,0,1.402,1.493,1.694,3.351,2.058,2.495.492,5.482,1.056,5.482,4.626,0,3.606-3.023,4.881-6.211,4.881-2.695,0-5.609-.911-6.557-3.661l2.787-1.166h0Z"/>
        </g>
        <g>
          <path class="cls-26" d="M233.808,427.237l6.739-9.726h-6.047v-1.912h9.216v.947l-6.575,9.726h6.374v1.912h-9.707v-.947Z"/>
          <path class="cls-26" d="M249.489,418.787c2.805,0,4.954,1.967,4.954,4.79,0,2.896-2.258,4.808-5.045,4.808-2.805,0-5.063-1.949-5.063-4.754,0-2.914,2.386-4.844,5.154-4.844h0ZM252.075,423.577c0-1.694-.856-3.114-2.677-3.114-1.858,0-2.604,1.475-2.604,3.169,0,1.639.874,3.023,2.659,3.023,1.839.018,2.622-1.457,2.622-3.078h0Z"/>
          <path class="cls-26" d="M256.046,414.798h2.204v5.646c.601-1.147,1.803-1.657,3.078-1.657,2.204,0,3.315,1.548,3.315,3.643v5.773h-2.222v-5.555c0-1.33-.692-2.058-1.967-2.058-1.421,0-2.204.874-2.204,2.186v5.409h-2.204v-13.387Z"/>
          <path class="cls-26" d="M271.217,418.787c2.805,0,4.954,1.967,4.954,4.79,0,2.896-2.258,4.808-5.045,4.808-2.805,0-5.063-1.949-5.063-4.754,0-2.914,2.385-4.844,5.154-4.844h0ZM273.803,423.577c0-1.694-.856-3.114-2.677-3.114-1.858,0-2.604,1.475-2.604,3.169,0,1.639.874,3.023,2.659,3.023,1.857.018,2.622-1.457,2.622-3.078Z"/>
        </g>
      </g>
      <path class="cls-41" d="M222.042,422.466c-.018-.31-.182-.674-.51-.874l-21.983-12.676c-.328-.182-.71-.182-1.038,0l-21.965,12.676c-.273.164-.528.492-.51.892v25.37c0,.364.2.71.51.892l21.983,12.694c.255.146.656.219,1.038,0l21.983-12.676c.328-.182.51-.528.51-.892v-25.37c-.018-.018-.018-.036-.018-.036ZM205.505,437.71c-.018,0-.018-.018-.018-.018-.018-.018-.036-.018-.055-.018s-.036-.018-.055-.018c-.018,0-.036-.018-.055-.018-.018,0-.036-.018-.055-.018-.018,0-.018-.018-.036-.018s-.036-.018-.055-.018h-.383c-.018,0-.036.018-.055.018-.012,0-.024.006-.036.018-.018,0-.036.018-.055.018-.018,0-.036.018-.055.018-.018,0-.036.018-.055.018-.018.018-.036.018-.055.018-.018,0-.018.018-.018.018l-8.651,4.972h0c-.874.51-1.821.492-2.932-.073-.255-.127-.492-.273-.692-.419l7.431-6.174,20.344-11.747v21.746l-14.459-8.305h0ZM199.04,410.992l19.906,11.51-11.146,6.429c-.055-.055-.109-.091-.182-.128l-8.068-4.662c-.328-.182-.71-.182-1.038,0l-8.159,4.717c-.018.018-.055.036-.073.055l-11.146-6.411,19.906-11.51h0ZM178.095,424.287l16.737,9.616c.164.091.346.146.51.146.364,0,.71-.182.892-.51.291-.492.109-1.129-.382-1.421l-3.497-2.022,6.684-3.861,6.72,3.879-7.23,4.171c-.055.036-.091.055-.146.091l-8.451,7.012c-.018,0-.018.018-.018.018-.018,0-.018.018-.018.018l-.018.018c-.012.012-.024.024-.036.036-.012.012-.024.024-.036.036-.018.018-.018.036-.036.036-.012.012-.018.024-.018.036-.018.018-.018.036-.018.055-.012.012-.018.024-.018.036,0,.018-.018.036-.018.055s-.018.036-.018.055-.018.036-.018.055-.018.036-.018.055-.018.036-.018.055c0,.018-.018.036-.018.055s0,.036-.018.055v.385c0,.019,0,.036.018.055,0,.018,0,.036.018.055,0,.018.018.036.018.055s.018.036.018.055.018.036.018.055.018.036.018.055c0,.018.018.018.018.036.018.018.018.036.036.055.012.012.018.024.018.036.018.018.018.036.036.055,0,0,0,.018.018.018.018.018.018.036.036.055h0c.036.036.856.892,2.076,1.53.892.455,1.767.674,2.604.674.82,0,1.603-.219,2.349-.637h0l8.141-4.681,13.987,8.05-5.3,3.06c-.036-.018-9.015-5.227-9.015-5.227-.492-.291-1.129-.127-1.421.382-.291.492-.127,1.129.382,1.421l7.995,4.626-5.227,3.023c-.018-.018-9.106-5.227-9.106-5.227-.492-.291-1.129-.109-1.421.382-.291.492-.109,1.129.382,1.421l8.068,4.626-5.282,3.042-20.945-12.093v-23.112h-.032v-.005h0Z"/>
    </g>
  </g>
  <g>
    <rect class="cls-57" x="382.505" y="405.179" width="124" height="60"/>
    <g>
      <g>
        <g>
          <path class="cls-26" d="M438.34,433.858h7.049c6.83,0,10.983,3.552,10.983,10.527,0,6.812-4.371,10.4-11.019,10.4h-7.012v-20.927h-.001ZM445.261,451.616c4.881,0,6.885-2.823,6.885-7.413,0-4.717-2.131-7.194-6.939-7.194h-2.805v14.607h2.859,0Z"/>
          <path class="cls-26" d="M473.127,451.452c-1.275,2.696-4.025,3.624-6.83,3.624-4.827,0-7.868-3.224-7.868-7.996,0-4.48,3.096-7.941,7.704-7.941,4.954,0,7.358,2.896,7.358,8.797h-11.329c0,2.586,1.493,4.48,4.28,4.48,1.657,0,3.023-.674,3.825-2.222l2.86,1.258ZM469.831,445.533c-.109-2.313-1.512-3.734-3.679-3.734-2.295,0-3.643,1.621-3.952,3.734h7.631,0Z"/>
          <path class="cls-26" d="M478.099,450.214c.565,1.493,2.131,2.222,3.788,2.222,1.184,0,2.659-.364,2.659-1.821,0-1.53-1.657-1.894-3.552-2.295-2.459-.51-5.209-1.111-5.209-4.553,0-3.151,2.932-4.644,5.701-4.644,2.422,0,5.209.911,6.211,3.333l-2.714,1.166c-.601-1.366-2.095-1.876-3.351-1.876-1.22,0-2.386.492-2.386,1.73,0,1.402,1.493,1.694,3.351,2.058,2.495.492,5.482,1.056,5.482,4.626,0,3.606-3.023,4.881-6.211,4.881-2.696,0-5.61-.911-6.557-3.661l2.788-1.166h0Z"/>
          <path class="cls-26" d="M490.976,432.547h3.661v13.605l5.537-6.666h4.025l-6.083,7.012,6.539,8.287h-4.225l-5.81-7.467v7.467h-3.661v-22.238h.017Z"/>
        </g>
        <g>
          <path class="cls-26" d="M438.376,427.229l6.739-9.726h-6.047v-1.912h9.216v.947l-6.575,9.726h6.375v1.912h-9.708v-.947Z"/>
          <path class="cls-26" d="M454.04,418.778c2.805,0,4.954,1.967,4.954,4.79,0,2.896-2.258,4.808-5.045,4.808-2.805,0-5.063-1.949-5.063-4.754-.001-2.914,2.385-4.844,5.154-4.844h0ZM456.626,423.568c0-1.694-.856-3.114-2.677-3.114-1.858,0-2.604,1.475-2.604,3.169,0,1.639.874,3.023,2.659,3.023,1.839.018,2.622-1.457,2.622-3.078Z"/>
          <path class="cls-26" d="M460.597,414.789h2.204v5.646c.601-1.147,1.803-1.657,3.078-1.657,2.204,0,3.315,1.548,3.315,3.643v5.774h-2.222v-5.555c0-1.33-.692-2.058-1.967-2.058-1.421,0-2.204.874-2.204,2.186v5.409h-2.204v-13.388h0Z"/>
          <path class="cls-26" d="M475.786,418.778c2.805,0,4.954,1.967,4.954,4.79,0,2.896-2.258,4.808-5.045,4.808-2.805,0-5.063-1.949-5.063-4.754,0-2.914,2.386-4.844,5.154-4.844h0ZM478.373,423.568c0-1.694-.856-3.114-2.677-3.114-1.858,0-2.604,1.475-2.604,3.169,0,1.639.874,3.023,2.659,3.023,1.838.018,2.622-1.457,2.622-3.078Z"/>
        </g>
      </g>
      <path class="cls-54" d="M385.904,461.579c-.291,0-.601-.091-.856-.255-.51-.328-.765-.929-.674-1.53l4.426-27.192c.237-1.457.984-2.768,2.095-3.715s2.55-1.475,4.007-1.475h18.231l1.02-6.247h-1.712c-.765,0-1.475-.328-1.967-.911s-.71-1.33-.583-2.076l1.166-7.231c.2-1.257,1.275-2.167,2.55-2.167h6.794c1.821,0,3.533.801,4.717,2.186,1.184,1.384,1.694,3.206,1.402,5.009l-2.732,16.829c-.128.729-.546,1.384-1.184,1.785l-15.263,9.416c-.929.565-2.113.51-2.969-.182l-7.103-5.664c-.674-.528-.783-1.512-.237-2.167.528-.674,1.512-.783,2.167-.237l6.83,5.446,14.753-9.143,2.696-16.592c.146-.892-.109-1.803-.692-2.495s-1.439-1.093-2.349-1.093h-6.356l-1.002,6.193h1.694c.765,0,1.475.328,1.967.911s.71,1.33.583,2.076l-1.184,7.267c-.2,1.257-1.275,2.167-2.55,2.167h-18.687c-1.53,0-2.805,1.093-3.06,2.604l-3.879,23.841,5.446-3.369c.401-.255.874-.382,1.366-.382h19.943c1.53,0,2.805-1.093,3.06-2.604l1.238-7.631c.146-.838.929-1.421,1.767-1.275s1.421.929,1.275,1.767l-1.238,7.631c-.237,1.457-.984,2.768-2.095,3.715s-2.55,1.475-4.007,1.475h-19.816l-8.196,5.081c-.237.161-.529.234-.802.234h0Z"/>
    </g>
  </g>
  <g>
    <rect class="cls-57" x="28.836" y="405.179" width="130" height="60"/>
    <g id="Artwork_5" data-name="Artwork 5">
      <g>
        <path class="cls-23" d="M52.594,457.379c-.666,0-1.332-.222-1.887-.555-.777-.555-1.332-1.554-1.332-2.553v-9.102l-15.762-27.417c-.555-1.11-.555-2.331.111-3.219.555-.999,1.665-1.554,2.775-1.554h28.86c1.109,0,2.108.555,2.663,1.554.666,1,.666,2.331.111,3.331l-1.887,3.33h3.774c1.109,0,2.108.555,2.663,1.554.666.999.666,2.331.111,3.33l-10.989,18.981v6.882c0,1.443-.888,2.553-2.22,2.997l-5.994,2.331c-.22.11-.664.11-.997.11M36.499,416.087c-.074.074-.111.148-.111.223l15.651,27.305c.444.777.444,1.221.444,1.665v8.879s.111.111.222,0l5.994-2.331h.222v-6.66c0-.444,0-1.221.445-1.776l10.878-18.87c0-.111,0-.222-.111-.222l-19.869-.111,5.328,9.213,3.774-6.549c.444-.777,1.332-.999,2.109-.555s.999,1.332.554,2.109l-4.439,7.659c-1,1.554-3.219,1.443-4.108.111l-6.438-11.433c-.444-.666-.444-1.554,0-2.331.445-.777,1.222-1.332,2.109-1.332h13.542l2.775-4.773s0-.111-.111-.223h-28.86v.002h0Z"/>
        <g>
          <path class="cls-26" d="M100.447,431.012c0,1.143-.2,2.103-.599,2.881-.4.778-.943,1.402-1.631,1.873-.688.47-1.486.806-2.396,1.009-.91.202-1.875.303-2.896.303h-9.099v-21.686h8.523c.99,0,1.923.089,2.797.266.875.177,1.638.485,2.29.925s1.165,1.031,1.539,1.774c.374.743.561,1.676.561,2.798,0,1.173-.291,2.151-.872,2.934-.581.784-1.448,1.342-2.601,1.676,1.486.303,2.588.877,3.306,1.721.719.844,1.078,2.019,1.078,3.526h0ZM87.936,424.491h3.897c.596,0,1.122-.05,1.577-.152.455-.101.839-.273,1.153-.515.313-.243.551-.574.713-.993.161-.42.242-.948.242-1.585,0-.596-.099-1.082-.296-1.456s-.463-.669-.796-.887c-.334-.217-.728-.366-1.183-.447s-.94-.121-1.456-.121h-3.852v6.156h0ZM87.936,434.135h4.473c.607,0,1.153-.063,1.638-.19.485-.126.897-.331,1.236-.614.339-.283.596-.647.774-1.092.177-.445.265-.985.265-1.623,0-.667-.109-1.215-.326-1.645-.218-.429-.516-.771-.895-1.023s-.824-.427-1.334-.523c-.511-.096-1.059-.144-1.645-.144h-4.186v6.854h0Z"/>
          <path class="cls-26" d="M108.044,416.514c0,.313-.056.604-.167.872s-.265.496-.463.682c-.197.188-.432.334-.705.44s-.566.159-.88.159c-.303,0-.591-.053-.864-.159-.273-.106-.513-.255-.72-.447s-.369-.419-.485-.682c-.117-.263-.174-.551-.174-.864s.058-.602.174-.864c.116-.263.275-.49.478-.683.202-.192.439-.341.712-.447.273-.106.566-.159.88-.159.304,0,.591.053.864.159.273.106.508.255.705.447.197.193.353.42.47.683.117.262.175.55.175.863ZM107.757,421.215v15.862h-3.791v-15.862h3.791Z"/>
          <path class="cls-26" d="M127.258,435.895c0,1.243-.217,2.307-.652,3.192-.434.885-1.029,1.61-1.782,2.176s-1.631.98-2.631,1.243c-1.001.263-2.068.394-3.2.394-.748,0-1.494-.058-2.237-.174s-1.446-.318-2.108-.607c-.662-.288-1.256-.68-1.782-1.175-.526-.496-.945-1.118-1.259-1.865l2.988-1.304c.192.445.445.812.758,1.099.313.288.665.521,1.054.698s.804.301,1.243.372.887.106,1.342.106c.698,0,1.321-.086,1.873-.258.551-.172,1.018-.432,1.402-.781.385-.349.68-.789.888-1.319.207-.531.311-1.15.311-1.858v-2.366c-.263.455-.589.864-.978,1.228-.389.364-.816.675-1.281.932-.465.258-.955.458-1.471.599-.515.142-1.041.212-1.577.212-1.122,0-2.123-.207-3.002-.622-.88-.414-1.62-.975-2.222-1.683-.601-.707-1.059-1.531-1.372-2.472-.313-.94-.47-1.936-.47-2.988,0-1.041.167-2.032.501-2.972.333-.94.811-1.767,1.433-2.48.621-.713,1.372-1.281,2.252-1.706.879-.425,1.87-.637,2.972-.637,1.082,0,2.08.22,2.995.659.915.44,1.655,1.14,2.221,2.1v-2.426h3.791v14.683h0ZM114.975,428.858c0,.617.093,1.208.28,1.774.187.566.458,1.064.812,1.494s.791.771,1.312,1.024c.521.253,1.115.379,1.782.379.748,0,1.4-.131,1.956-.394s1.016-.619,1.38-1.069.637-.978.819-1.585.273-1.248.273-1.926c0-.667-.088-1.291-.265-1.873-.177-.581-.445-1.084-.804-1.509s-.806-.761-1.342-1.009c-.536-.248-1.168-.372-1.896-.372-.758,0-1.41.134-1.956.402s-.993.632-1.342,1.092c-.349.46-.604.999-.766,1.615-.162.618-.243,1.27-.243,1.957h0Z"/>
          <path class="cls-26" d="M135.735,416.514c0,.313-.056.604-.167.872-.111.268-.265.496-.463.682-.197.188-.432.334-.705.44s-.566.159-.88.159c-.303,0-.591-.053-.864-.159s-.513-.255-.72-.447-.369-.419-.485-.682-.174-.551-.174-.864.058-.602.174-.864c.116-.263.275-.49.478-.683.202-.192.439-.341.712-.447.273-.106.566-.159.88-.159.304,0,.591.053.864.159s.508.255.705.447c.197.193.353.42.47.683.117.262.175.55.175.863ZM135.447,421.215v15.862h-3.791v-15.862h3.791Z"/>
          <path class="cls-26" d="M147.336,424.005c-.586,0-1.11.089-1.57.266s-.847.43-1.16.758c-.313.329-.553.726-.72,1.19-.167.465-.25.981-.25,1.547v9.311h-3.791v-15.862h3.791v2.517c.253-.495.569-.922.948-1.281s.801-.655,1.266-.888c.465-.232.958-.404,1.479-.515.52-.111,1.044-.167,1.569-.167.97,0,1.807.159,2.51.478s1.281.758,1.737,1.319c.455.561.788,1.224,1.001,1.987.212.763.318,1.595.318,2.494v9.918h-3.821v-9.554c0-1.112-.263-1.976-.789-2.593-.527-.616-1.365-.925-2.518-.925h0Z"/>
        </g>
        <g>
          <path class="cls-26" d="M89.771,450.763c0,.421-.062.822-.187,1.202s-.306.716-.544,1.006c-.238.291-.531.522-.88.693-.349.172-.748.257-1.197.257-.214,0-.427-.023-.638-.068-.21-.045-.409-.113-.597-.205-.187-.092-.361-.208-.521-.348-.16-.14-.296-.304-.409-.491v1.006h-.971v-9.045h.971v3.955c.101-.172.234-.327.398-.465.163-.139.344-.257.541-.357s.4-.176.611-.232c.21-.054.415-.082.614-.082.46,0,.866.084,1.217.251.351.168.645.395.881.682.236.287.413.623.533,1.009.119.39.178.799.178,1.232h0ZM84.763,450.81c0,.339.046.65.137.931.092.281.227.524.407.728.179.205.399.364.661.477.261.113.561.17.901.17.367,0,.671-.066.913-.196.242-.131.436-.306.582-.527.146-.22.249-.475.31-.763.06-.289.091-.593.091-.913,0-.296-.038-.583-.114-.86-.076-.277-.192-.524-.348-.74-.156-.217-.354-.39-.594-.521-.24-.131-.524-.196-.851-.196-.363,0-.676.064-.939.193s-.481.303-.653.521-.298.474-.38.766-.123.602-.123.93h0Z"/>
          <path class="cls-26" d="M96.091,447.697l-3.382,8.25h-.983l1.158-2.762-2.364-5.488h1.041l1.837,4.388,1.697-4.388h.996Z"/>
          <path class="cls-26" d="M105.03,452.951v.866h-6.073v-.421l4.88-7.114h-4.458v-.831h5.722v.421l-4.751,7.079h4.68Z"/>
          <path class="cls-26" d="M112.104,450.798c0,.445-.076.858-.228,1.24-.152.383-.365.713-.638.992s-.596.497-.968.655c-.373.158-.779.237-1.22.237-.465,0-.884-.082-1.258-.246s-.693-.39-.956-.678c-.263-.289-.465-.628-.606-1.018-.14-.39-.211-.811-.211-1.264,0-.441.074-.851.222-1.232.148-.38.357-.711.626-.991.269-.281.59-.501.962-.661.373-.16.783-.24,1.232-.24.464,0,.885.082,1.261.245.376.164.696.39.959.679.263.289.466.628.608,1.018.143.391.215.812.215,1.264h0ZM107.025,450.81c0,.328.043.632.129.913s.214.525.386.732c.172.207.384.368.638.485.254.117.548.176.884.176.347,0,.649-.065.904-.193.256-.129.467-.302.635-.521.167-.219.292-.472.374-.761s.123-.593.123-.912c0-.312-.043-.609-.129-.889-.086-.281-.214-.529-.386-.743-.172-.214-.384-.384-.638-.509s-.548-.187-.884-.187c-.359,0-.667.064-.924.193s-.468.303-.632.524c-.164.22-.285.477-.363.769-.078.291-.117.599-.117.923h0Z"/>
          <path class="cls-26" d="M116.246,448.435c-.257,0-.49.039-.696.117-.207.078-.383.189-.526.334-.145.144-.256.32-.334.526s-.117.439-.117.696v3.709h-.971v-9.045h.971v3.896c.093-.191.209-.354.345-.489s.288-.245.454-.334c.165-.088.345-.152.538-.193s.391-.061.594-.061c.382,0,.717.063,1.003.19.287.127.526.303.72.527.193.224.338.49.436.798.097.308.146.646.146,1.012v3.698h-.971v-3.768c0-.526-.133-.927-.401-1.202-.268-.274-.665-.411-1.191-.411Z"/>
          <path class="cls-26" d="M126.333,450.798c0,.445-.076.858-.228,1.24-.152.383-.365.713-.638.992s-.596.497-.968.655c-.373.158-.779.237-1.22.237-.465,0-.884-.082-1.258-.246s-.693-.39-.956-.678c-.263-.289-.465-.628-.606-1.018-.14-.39-.211-.811-.211-1.264,0-.441.074-.851.222-1.232.148-.38.357-.711.626-.991.269-.281.59-.501.962-.661.373-.16.783-.24,1.232-.24.464,0,.885.082,1.261.245s.696.39.959.679c.263.289.466.628.608,1.018.143.391.215.812.215,1.264h0ZM121.254,450.81c0,.328.043.632.129.913s.214.525.386.732c.172.207.384.368.638.485.254.117.548.176.884.176.347,0,.649-.065.904-.193.256-.129.467-.302.635-.521.167-.219.292-.472.374-.761s.123-.593.123-.912c0-.312-.043-.609-.129-.889-.086-.281-.214-.529-.386-.743-.172-.214-.384-.384-.638-.509s-.548-.187-.884-.187c-.359,0-.667.064-.924.193s-.468.303-.632.524c-.164.22-.285.477-.363.769-.078.291-.117.599-.117.923h0Z"/>
          <path class="cls-26" d="M137.215,451.43c-.14.355-.327.685-.559.989-.232.304-.498.568-.798.79-.301.222-.63.397-.989.524-.359.127-.731.19-1.118.19-.651,0-1.225-.109-1.723-.328-.498-.218-.915-.521-1.252-.907-.338-.386-.593-.843-.767-1.372-.174-.528-.26-1.103-.26-1.723,0-.382.042-.754.126-1.115s.205-.699.362-1.015c.158-.316.351-.606.579-.869s.488-.489.779-.676c.291-.187.611-.333.962-.439.351-.105.725-.158,1.123-.158.374,0,.741.055,1.1.164.359.109.69.266.995.468.304.203.573.447.807.734.234.287.417.607.55.963l-.831.362c-.109-.284-.249-.543-.418-.775-.17-.232-.366-.43-.588-.594s-.468-.291-.737-.381c-.269-.09-.558-.134-.866-.134-.503,0-.937.099-1.302.298s-.665.464-.901.796c-.236.331-.409.71-.521,1.135-.111.425-.167.864-.167,1.317,0,.46.061.897.184,1.311.123.413.308.776.556,1.088.247.312.558.56.93.743.373.184.806.275,1.302.275.296,0,.583-.053.86-.158.277-.105.533-.248.767-.43.234-.181.441-.394.62-.638s.32-.502.421-.775l.774.34h0Z"/>
          <path class="cls-26" d="M139.766,450.178v3.639h-1.018v-8.367h2.75c.386,0,.756.041,1.109.123s.664.217.933.404c.269.187.484.432.644.734.16.303.24.674.24,1.115,0,.327-.051.619-.152.875-.102.256-.244.477-.427.664-.184.187-.402.342-.655.465-.254.123-.533.216-.837.278l2.563,3.709h-1.135l-2.492-3.639h-1.523ZM139.766,449.371h1.802c.269,0,.515-.028.74-.084s.419-.149.583-.275c.163-.127.291-.291.38-.491s.134-.448.134-.74c0-.296-.047-.542-.14-.737-.094-.195-.222-.349-.386-.463-.164-.113-.358-.193-.582-.24s-.467-.07-.728-.07h-1.802v3.1h-.001Z"/>
          <path class="cls-26" d="M147.255,446.773v7.044h-.936v-8.367h1.416l2.68,6.635,2.645-6.635h1.404v8.367h-1.018v-7.044l-2.832,7.044h-.433l-2.926-7.044Z"/>
        </g>
      </g>
    </g>
  </g>
  <g>
    <circle class="cls-32" cx="617.541" cy="441.892" r="8"/>
    <line class="cls-65" x1="617.541" y1="438.392" x2="617.541" y2="445.392"/>
    <line class="cls-65" x1="621.041" y1="441.892" x2="614.041" y2="441.892"/>
  </g>
  <g>
    <circle class="cls-32" cx="636.66" cy="441.892" r="8"/>
    <line class="cls-65" x1="640.16" y1="441.892" x2="633.16" y2="441.892"/>
  </g>
</svg>